<svg width="807" height="538" viewBox="0 0 807 538" fill="none" xmlns="http://www.w3.org/2000/svg">
<g clip-path="url(#clip0_81_186)">
<path d="M807 0H0V538H807V0Z" fill="#D8E3FF"/>
<path d="M757.781 239.296C738.417 210.945 697.379 195.754 696.312 153.261C695.621 125.651 707.568 110.688 688.448 87.1201C642.225 30.1508 570.994 23.4763 510.171 47.2755C449.37 71.0681 400.781 118.758 333.182 115.882C296.37 114.317 262.166 95.9954 225.725 92.5555C214.499 91.4958 204.01 92.4055 194.202 95.0401C157.432 104.92 124.966 142.012 112.739 183.22C102.83 216.625 115.491 249.603 99.9279 282.316C83.3412 317.185 50.6798 341.402 42.45 381.657C32.5736 429.973 70.3086 471.986 110.848 473.3C136.649 474.134 184.475 469.814 206.397 453.117C233.088 432.787 259.319 431.45 290.435 432.229C349.651 433.713 408.864 447.684 467.313 457.636C517.4 466.162 566.765 478.787 617.523 480.388C654.802 481.565 686.436 482.094 706.609 439.634C730.715 388.883 798.395 298.766 757.781 239.296Z" fill="url(#paint0_linear_81_186)"/>
<path d="M233.626 494.363C234.607 494.363 235.354 493.486 235.191 492.518C233.564 482.896 224.03 438.887 185.64 438.535C151.625 438.225 130.985 455.216 123.792 462.4C122.508 463.684 123.078 465.882 124.829 466.364C129.472 467.643 137.203 470.75 142.166 477.949C149.646 488.807 169.037 487.102 181.117 472.178C193.084 457.395 222.899 448.539 232.074 493.088C232.221 493.825 232.87 494.363 233.626 494.363Z" fill="#BDD0FB"/>
<path d="M156.356 277.018C155.622 275.407 153.262 275.609 152.802 277.318C148.635 292.816 140.03 339.077 178.059 360.969C224.141 387.497 225.253 375.498 230.998 422.209C235.944 462.413 237.63 486.861 238.005 492.893C238.057 493.721 238.742 494.363 239.573 494.363C240.46 494.363 241.174 493.633 241.142 492.743C240.708 480.085 237.542 396.438 228.494 355.523C212.403 282.753 174.726 317.4 156.356 277.018Z" fill="#91B3FA"/>
<path d="M185.118 161.886C184.828 160.249 182.461 160.285 182.216 161.932C180.99 170.191 178.656 180.732 174.283 187.615C166.167 200.387 151.423 246.893 191.903 270.079C232.384 293.266 242.338 305.538 242.035 350.065C241.761 390.761 244.21 477.604 244.634 492.244C244.666 493.424 245.635 494.36 246.818 494.36C248.022 494.36 249 493.388 249.003 492.185C249.059 473.14 249.326 334.701 245.853 301.156C240.353 248.002 195.529 220.772 185.118 161.886Z" fill="#91B3FA"/>
<path d="M204.134 53.1609C204.215 51.2698 206.726 50.6796 207.655 52.3295C212.148 60.2886 222.266 73.8658 242.508 83.6933C272.874 98.4345 327.365 128.921 294.87 195.529C261.087 264.774 273.079 313.139 270.751 337.355C268.596 359.779 266.326 475.321 266 492.286C265.977 493.444 265.032 494.367 263.874 494.367C262.678 494.367 261.719 493.382 261.748 492.189C262.221 473.476 265.563 340.071 265.622 318.715C265.687 295.737 271.371 217.107 250.832 188.43C230.972 160.686 200.974 125.093 204.134 53.1609Z" fill="#BDD0FB"/>
<path d="M185.806 197.071C185.392 198.372 185.076 199.82 184.864 201.232C184.733 201.939 184.668 202.656 184.596 203.374C184.502 204.088 184.498 204.808 184.466 205.526C184.41 208.395 184.551 211.277 185.141 214.085C186.246 219.709 188.724 224.995 192.04 229.664C192.461 230.244 192.846 230.851 193.296 231.412L194.698 233.052L196.1 234.695L197.603 236.273C199.641 238.354 201.799 240.333 204.01 242.276C208.431 246.159 213.074 249.893 217.447 253.998C221.836 258.077 225.941 262.557 229.391 267.52C231.096 270.014 232.658 272.606 234.066 275.277L235.067 277.305L235.563 278.322L236.016 279.359L236.919 281.429L237.731 283.536C238.298 284.931 238.726 286.373 239.218 287.794C239.668 289.226 240.072 290.673 240.48 292.118C240.829 293.575 241.21 295.026 241.507 296.497C241.784 297.967 242.13 299.428 242.345 300.908C243.346 306.807 243.91 312.761 244.138 318.714C244.155 319.151 243.815 319.517 243.379 319.533C242.951 319.549 242.593 319.22 242.56 318.799C241.683 307.048 239.772 295.294 235.462 284.413L234.643 282.382L233.737 280.389L233.284 279.395L232.788 278.42L231.794 276.477C230.395 273.924 228.856 271.452 227.177 269.075C225.465 266.724 223.639 264.455 221.692 262.286C219.749 260.115 217.656 258.067 215.51 256.075C211.213 252.084 206.586 248.403 202.073 244.49C199.82 242.534 197.593 240.515 195.467 238.37L193.896 236.736L192.419 234.989L190.941 233.241C190.465 232.644 190.058 231.995 189.611 231.373C186.106 226.381 183.537 220.613 182.591 214.541L182.281 212.262C182.196 211.502 182.183 210.733 182.131 209.97C182.066 209.207 182.086 208.441 182.102 207.678C182.112 206.912 182.138 206.149 182.229 205.389C182.307 204.629 182.356 203.866 182.496 203.116C182.614 202.363 182.728 201.61 182.907 200.863C183.217 199.357 183.641 197.922 184.244 196.438C184.417 196.011 184.906 195.806 185.333 195.979C185.741 196.145 185.946 196.592 185.816 197.006L185.806 197.071Z" fill="#BDD0FB"/>
<path d="M157.269 285.489C157.716 288.094 158.629 290.696 159.799 293.099C161.003 295.499 162.401 297.794 164.041 299.91C167.312 304.149 171.404 307.7 175.871 310.661C178.082 312.2 180.465 313.406 182.855 314.72L186.543 316.686C187.759 317.365 188.952 318.092 190.156 318.796C194.919 321.698 199.514 324.926 203.733 328.617C207.91 332.354 211.738 336.488 215.073 340.994L217.453 344.46C217.867 345.024 218.194 345.647 218.552 346.25L219.609 348.063L220.665 349.876L221.588 351.757C222.191 353.019 222.837 354.258 223.401 355.536C224.405 358.142 225.572 360.685 226.332 363.372C226.749 364.702 227.193 366.023 227.555 367.366L228.513 371.425L228.993 373.453L229.342 375.508L230.026 379.613C230.277 380.976 230.343 382.365 230.496 383.741L230.897 387.872C230.926 388.169 230.708 388.433 230.411 388.462C230.124 388.491 229.87 388.289 229.827 388.009L229.821 387.973C229.394 385.263 229.048 382.541 228.566 379.851L227.734 375.834L227.313 373.828L226.766 371.856L225.673 367.914C225.269 366.613 224.773 365.341 224.346 364.05C223.544 361.445 222.348 358.996 221.314 356.485C220.734 355.259 220.078 354.069 219.465 352.859L218.529 351.056L217.463 349.325L216.4 347.594C216.038 347.02 215.715 346.426 215.298 345.888L212.924 342.598C209.608 338.324 205.911 334.359 201.829 330.801C197.697 327.303 193.269 324.153 188.617 321.349C187.44 320.671 186.279 319.963 185.089 319.305L181.482 317.394C179.05 316.044 176.533 314.72 174.231 313.087C169.581 309.898 165.365 305.969 162.14 301.296C161.374 300.1 160.585 298.926 159.949 297.654C159.61 297.035 159.271 296.412 159.001 295.756C158.73 295.101 158.407 294.475 158.185 293.8C157.69 292.476 157.259 291.13 156.937 289.757C156.591 288.384 156.395 286.998 156.343 285.548C156.333 285.293 156.532 285.081 156.787 285.071C157.018 285.062 157.217 285.228 157.256 285.453L157.269 285.489Z" fill="#BDD0FB"/>
<path d="M139.636 457.424C142.251 455.184 145.091 453.286 148.042 451.545C149.519 450.684 151.025 449.866 152.564 449.112C154.097 448.343 155.658 447.632 157.253 446.993C160.425 445.673 163.709 444.619 167.051 443.768C170.4 442.95 173.823 442.409 177.27 442.118C180.716 441.825 184.195 441.861 187.638 442.249C191.078 442.627 194.496 443.312 197.776 444.407L199.011 444.799L200.218 445.275C201.017 445.601 201.829 445.898 202.614 446.246C204.163 447.003 205.741 447.697 207.199 448.62C210.202 450.296 212.938 452.38 215.543 454.571C215.745 454.74 215.771 455.04 215.601 455.239C215.445 455.425 215.174 455.461 214.975 455.33L214.953 455.314C212.161 453.449 209.39 451.581 206.364 450.185C204.897 449.406 203.329 448.845 201.812 448.186C201.04 447.89 200.247 447.648 199.468 447.378L198.294 446.983L197.097 446.667C193.931 445.728 190.658 445.242 187.384 444.955C186.562 444.906 185.747 444.799 184.922 444.799L182.454 444.76C180.808 444.818 179.161 444.861 177.521 445.03C170.947 445.607 164.498 447.313 158.264 449.582C152.036 451.874 145.965 454.763 140.213 458.183L140.193 458.197C139.968 458.33 139.675 458.255 139.541 458.03C139.414 457.825 139.463 457.57 139.636 457.424Z" fill="url(#paint1_linear_81_186)"/>
<path d="M216.345 73.1095C218.781 75.7505 221.34 78.3003 223.893 80.8241C226.469 83.3347 229.068 85.8193 231.745 88.2126C234.379 90.6515 237.108 92.9829 239.851 95.2946C241.204 96.4717 242.619 97.5738 243.998 98.715C245.384 99.8497 246.825 100.913 248.224 102.031C249.636 103.133 251.083 104.186 252.508 105.266C253.946 106.332 255.423 107.339 256.881 108.376C259.848 110.447 262.831 112.644 265.626 115.038C271.227 119.811 276.278 125.419 279.956 131.911C281.795 135.146 283.334 138.553 284.495 142.081C285.656 145.606 286.494 149.225 287.035 152.874C288.098 160.184 288.016 167.569 287.27 174.827C286.52 182.092 285.069 189.239 283.22 196.256C281.371 203.273 279.167 210.179 276.64 216.958C276.568 217.153 276.353 217.251 276.157 217.179C275.972 217.111 275.874 216.905 275.929 216.716C280.132 202.934 283.621 188.864 284.739 174.599C284.844 172.816 284.987 171.035 285.007 169.255C285.023 168.365 285.072 167.475 285.062 166.585L285.023 163.917C284.889 160.37 284.648 156.822 284.025 153.343C283.425 149.864 282.607 146.431 281.456 143.111C280.315 139.792 278.821 136.603 277.051 133.587C273.503 127.545 268.775 122.24 263.366 117.695C260.666 115.396 257.81 113.332 254.862 111.262C253.389 110.189 251.892 109.149 250.441 108.05C249 106.938 247.536 105.852 246.111 104.718C243.274 102.435 240.503 100.075 237.793 97.6488C236.443 96.4293 235.106 95.1968 233.805 93.9284L231.843 92.0373L229.919 90.107C227.382 87.505 224.891 84.8607 222.534 82.0989C220.157 79.3535 217.871 76.5364 215.758 73.5692C215.637 73.3997 215.676 73.1649 215.846 73.0442C216.003 72.9334 216.214 72.9595 216.338 73.0964L216.345 73.1095Z" fill="url(#paint2_linear_81_186)"/>
<path d="M577.714 494.363C576.733 494.363 575.986 493.486 576.149 492.518C577.776 482.896 587.31 438.887 625.701 438.535C659.715 438.225 680.355 455.216 687.548 462.4C688.833 463.684 688.262 465.882 686.511 466.364C681.868 467.643 674.137 470.75 669.174 477.949C661.695 488.807 642.304 487.102 630.223 472.178C618.257 457.395 588.442 448.539 579.267 493.088C579.12 493.825 578.471 494.363 577.714 494.363Z" fill="#BDD0FB"/>
<path d="M654.984 277.018C655.718 275.407 658.078 275.609 658.538 277.318C662.705 292.816 671.31 339.077 633.282 360.969C587.199 387.497 586.088 375.498 580.342 422.209C575.396 462.413 573.71 486.861 573.335 492.893C573.283 493.721 572.598 494.363 571.767 494.363C570.88 494.363 570.166 493.633 570.199 492.743C570.632 480.085 573.798 396.438 582.846 355.523C598.938 282.753 636.614 317.4 654.984 277.018Z" fill="#91B3FA"/>
<path d="M626.222 161.886C626.513 160.249 628.88 160.285 629.124 161.932C630.35 170.191 632.685 180.732 637.057 187.615C645.173 200.387 659.917 246.893 619.437 270.079C578.957 293.266 569.002 305.538 569.305 350.065C569.579 390.761 567.13 477.604 566.707 492.244C566.674 493.424 565.706 494.36 564.522 494.36C563.319 494.36 562.341 493.388 562.337 492.185C562.282 473.14 562.015 334.701 565.487 301.156C570.988 248.002 615.811 220.772 626.222 161.886Z" fill="#BDD0FB"/>
<path d="M607.207 53.1609C607.125 51.2698 604.614 50.6796 603.685 52.3295C599.192 60.2886 589.074 73.8658 568.833 83.6933C538.467 98.4345 483.975 128.921 516.47 195.529C550.254 264.774 538.261 313.139 540.589 337.355C542.744 359.779 545.014 475.321 545.34 492.286C545.363 493.444 546.308 494.367 547.466 494.367C548.662 494.367 549.621 493.382 549.592 492.189C549.119 473.476 545.777 340.071 545.718 318.715C545.653 295.737 539.97 217.107 560.505 188.43C580.369 160.686 610.366 125.093 607.207 53.1609Z" fill="#91B3FA"/>
<path d="M627.086 196.442C627.693 197.925 628.113 199.36 628.423 200.866C628.603 201.61 628.717 202.363 628.834 203.119C628.974 203.873 629.026 204.632 629.101 205.392C629.193 206.152 629.216 206.915 629.229 207.681C629.245 208.444 629.264 209.21 629.199 209.973C629.147 210.736 629.134 211.506 629.049 212.265L628.74 214.545C627.794 220.616 625.225 226.384 621.719 231.376C621.276 231.995 620.865 232.647 620.389 233.244L618.915 234.992L617.438 236.74L615.867 238.373C613.741 240.515 611.517 242.534 609.261 244.493C604.748 248.406 600.121 252.09 595.824 256.078C593.675 258.074 591.585 260.118 589.642 262.29C587.695 264.458 585.869 266.727 584.157 269.078C582.478 271.452 580.939 273.923 579.54 276.48L578.546 278.423L578.05 279.398L577.597 280.393L576.69 282.385L575.872 284.416C571.562 295.297 569.651 307.051 568.774 318.802C568.744 319.236 568.366 319.565 567.933 319.533C567.509 319.503 567.186 319.138 567.199 318.714C567.427 312.761 567.991 306.81 568.992 300.908C569.211 299.428 569.556 297.97 569.83 296.497C570.127 295.029 570.512 293.578 570.857 292.118C571.265 290.673 571.669 289.226 572.119 287.794C572.611 286.376 573.039 284.931 573.606 283.536L574.418 281.429L575.321 279.359L575.774 278.322L576.27 277.305L577.271 275.277C578.679 272.606 580.238 270.014 581.947 267.52C585.4 262.557 589.505 258.077 593.89 253.998C598.266 249.893 602.906 246.159 607.327 242.276C609.538 240.336 611.696 238.354 613.734 236.273L615.237 234.695L616.639 233.052L618.041 231.412C618.491 230.851 618.876 230.244 619.297 229.664C622.613 224.995 625.091 219.713 626.196 214.085C626.786 211.277 626.927 208.395 626.871 205.526C626.839 204.808 626.835 204.085 626.741 203.374C626.669 202.656 626.604 201.939 626.473 201.232C626.258 199.82 625.945 198.369 625.531 197.071L625.512 197.012C625.371 196.572 625.613 196.103 626.053 195.962C626.477 195.825 626.923 196.041 627.086 196.442Z" fill="url(#paint3_linear_81_186)"/>
<path d="M654.991 285.534C654.939 286.989 654.746 288.371 654.397 289.744C654.075 291.12 653.644 292.463 653.149 293.787C652.927 294.462 652.601 295.088 652.333 295.743C652.063 296.399 651.724 297.022 651.385 297.641C650.749 298.91 649.96 300.087 649.193 301.283C645.969 305.952 641.749 309.881 637.103 313.074C634.801 314.707 632.284 316.031 629.852 317.381L626.245 319.292C625.055 319.95 623.894 320.654 622.717 321.336C618.064 324.137 613.637 327.287 609.505 330.788C605.423 334.346 601.726 338.311 598.41 342.585L596.036 345.875C595.622 346.41 595.296 347.007 594.934 347.581L593.871 349.312L592.805 351.043L591.869 352.846C591.256 354.056 590.6 355.246 590.02 356.472C588.986 358.983 587.79 361.432 586.988 364.037C586.56 365.328 586.065 366.6 585.661 367.901L584.568 371.843L584.02 373.815L583.603 375.821L582.772 379.838C582.289 382.528 581.943 385.25 581.516 387.96L581.51 387.996C581.464 388.289 581.187 388.491 580.894 388.446C580.61 388.4 580.414 388.143 580.44 387.862L580.841 383.731C580.995 382.355 581.06 380.966 581.311 379.603L581.996 375.498L582.345 373.444L582.824 371.416L583.782 367.356C584.144 366.013 584.588 364.692 585.005 363.362C585.765 360.675 586.932 358.132 587.936 355.527C588.504 354.252 589.146 353.009 589.749 351.748L590.672 349.866L591.729 348.053L592.785 346.24C593.144 345.641 593.47 345.018 593.884 344.45L596.264 340.984C599.6 336.478 603.428 332.344 607.604 328.607C611.824 324.916 616.418 321.688 621.182 318.786C622.388 318.085 623.578 317.358 624.794 316.677L628.482 314.71C630.872 313.4 633.256 312.193 635.466 310.651C639.933 307.69 644.025 304.143 647.296 299.901C648.936 297.785 650.335 295.492 651.538 293.089C652.708 290.686 653.618 288.084 654.068 285.479L654.078 285.43C654.12 285.179 654.358 285.013 654.609 285.055C654.841 285.107 655.001 285.31 654.991 285.534Z" fill="#BDD0FB"/>
<path d="M671.131 458.18C665.379 454.76 659.311 451.871 653.08 449.579C646.846 447.31 640.396 445.604 633.823 445.027C632.183 444.858 630.536 444.815 628.89 444.756L626.421 444.796C625.596 444.796 624.781 444.903 623.96 444.952C620.686 445.239 617.409 445.725 614.246 446.664L613.05 446.98L611.876 447.375C611.096 447.645 610.304 447.887 609.531 448.183C608.015 448.842 606.45 449.403 604.98 450.182C601.954 451.578 599.179 453.446 596.391 455.311L596.372 455.324C596.153 455.471 595.856 455.412 595.713 455.194C595.576 454.992 595.622 454.721 595.801 454.564C598.406 452.376 601.142 450.29 604.145 448.614C605.602 447.691 607.177 446.996 608.729 446.24C609.515 445.891 610.327 445.594 611.126 445.268L612.332 444.792L613.568 444.401C616.848 443.305 620.265 442.621 623.705 442.243C627.148 441.855 630.627 441.819 634.074 442.112C637.52 442.399 640.941 442.944 644.293 443.762C647.635 444.613 650.918 445.666 654.091 446.987C655.685 447.629 657.247 448.337 658.78 449.106C660.319 449.859 661.825 450.678 663.302 451.539C666.253 453.28 669.09 455.177 671.708 457.417C671.907 457.587 671.93 457.89 671.76 458.089C671.607 458.268 671.349 458.304 671.157 458.19L671.131 458.18Z" fill="url(#paint4_linear_81_186)"/>
<path d="M595.586 73.5756C593.473 76.5428 591.187 79.3599 588.81 82.1054C586.453 84.8671 583.962 87.5114 581.425 90.1134L579.501 92.0437L577.538 93.9348C576.237 95.2032 574.897 96.4357 573.551 97.6552C570.841 100.081 568.07 102.442 565.233 104.724C563.808 105.859 562.347 106.945 560.903 108.057C559.448 109.155 557.952 110.195 556.481 111.268C553.534 113.339 550.677 115.403 547.978 117.701C542.568 122.25 537.84 127.552 534.293 133.594C532.522 136.613 531.029 139.799 529.888 143.118C528.737 146.437 527.922 149.871 527.318 153.35C526.692 156.829 526.454 160.376 526.321 163.924L526.282 166.591C526.269 167.481 526.321 168.371 526.337 169.261C526.357 171.042 526.5 172.822 526.604 174.605C527.726 188.871 531.212 202.937 535.415 216.723C535.476 216.922 535.366 217.13 535.167 217.192C534.978 217.251 534.775 217.15 534.704 216.964C532.177 210.185 529.969 203.279 528.124 196.262C526.275 189.246 524.824 182.098 524.074 174.834C523.327 167.576 523.246 160.19 524.309 152.88C524.847 149.228 525.688 145.612 526.849 142.087C528.01 138.559 529.549 135.152 531.388 131.918C535.062 125.429 540.116 119.818 545.718 115.044C548.512 112.651 551.496 110.453 554.463 108.383C555.917 107.342 557.398 106.335 558.835 105.272C560.264 104.193 561.711 103.14 563.12 102.037C564.519 100.919 565.96 99.8561 567.346 98.7214C568.725 97.5802 570.14 96.4781 571.493 95.301C574.235 92.9925 576.961 90.6579 579.599 88.219C582.276 85.8257 584.875 83.3411 587.451 80.8305C590.007 78.3035 592.563 75.757 594.999 73.1159L595.005 73.1093C595.146 72.9561 595.384 72.9463 595.537 73.0865C595.674 73.2104 595.693 73.4224 595.586 73.5756Z" fill="#BDD0FB"/>
<path d="M407.312 44.9832C419.758 44.9147 431.392 51.55 437.672 62.2905L490.425 152.541L451.669 175.192L410.882 105.409C410.211 104.258 408.972 103.547 407.632 103.557C406.298 103.563 405.062 104.284 404.404 105.445L361.618 180.474L322.703 158.286C322.703 158.286 322.791 158.325 322.8 158.315L322.853 158.224L363.261 87.1689L377.191 62.6426C383.353 51.8305 394.873 45.0484 407.312 44.9832Z" fill="url(#paint5_linear_81_186)"/>
<path d="M433.27 179.261L503.265 138.351L495.45 205.314L433.27 179.261Z" fill="url(#paint6_linear_81_186)"/>
<path d="M416.478 114.992L410.879 105.412C410.208 104.261 408.969 103.55 407.628 103.56C406.295 103.566 405.059 104.287 404.4 105.448L361.615 180.478L322.703 158.286C322.703 158.286 322.791 158.325 322.8 158.315L322.853 158.224L363.261 87.1688C393.572 64.4717 416.478 114.992 416.478 114.992Z" fill="url(#paint7_linear_81_186)"/>
<path d="M572.644 325.937C566.544 336.785 555.021 343.609 542.581 343.749L438.053 344.923L437.551 300.034L518.375 299.128C519.708 299.112 520.938 298.388 521.593 297.22C522.248 296.06 522.232 294.628 521.551 293.481L477.529 219.171L516.069 196.341C516.069 196.341 515.991 196.399 515.998 196.409L516.05 196.497L557.795 266.776L572.214 291.019C578.549 301.73 578.742 315.095 572.644 325.937Z" fill="url(#paint8_linear_81_186)"/>
<path d="M443.117 282.036L444.026 363.108L389.705 323.178L443.117 282.036Z" fill="url(#paint9_linear_81_186)"/>
<path d="M507.275 299.252L518.368 299.128C519.702 299.112 520.931 298.388 521.586 297.22C522.242 296.06 522.225 294.628 521.544 293.481L477.522 219.171L516.063 196.341C516.063 196.341 515.985 196.399 515.991 196.409L516.043 196.497L557.789 266.776C562.51 304.351 507.275 299.252 507.275 299.252Z" fill="url(#paint10_linear_81_186)"/>
<path d="M240.118 327.228C233.805 316.504 233.698 303.109 239.828 292.284L291.352 201.326L330.411 223.453L290.572 293.781C289.914 294.941 289.924 296.37 290.605 297.521C291.28 298.668 292.526 299.376 293.859 299.363L380.226 298.655L380.591 343.449C380.591 343.449 380.582 343.352 380.569 343.352H380.464L298.724 344.118L270.52 344.398C258.074 344.499 246.424 337.949 240.118 327.228Z" fill="url(#paint11_linear_81_186)"/>
<path d="M343.172 237.313L272.626 197.351L334.45 170.461L343.172 237.313Z" fill="url(#paint12_linear_81_186)"/>
<path d="M296.041 284.126L290.573 293.781C289.914 294.941 289.924 296.37 290.605 297.521C291.28 298.668 292.526 299.376 293.859 299.363L380.226 298.655L380.591 343.449C380.591 343.449 380.582 343.352 380.569 343.352H380.464L298.724 344.118C263.871 329.315 296.041 284.126 296.041 284.126Z" fill="url(#paint13_linear_81_186)"/>
<path d="M487.787 495.068C488.631 495.068 489.316 494.396 489.316 493.568V314.293C489.316 313.465 488.631 312.793 487.787 312.793C486.942 312.793 486.258 313.465 486.258 314.293V493.564C486.261 494.396 486.942 495.068 487.787 495.068Z" fill="#7D97F4"/>
<path d="M529.187 495.068C530.031 495.068 530.716 494.396 530.716 493.568V314.293C530.716 313.465 530.031 312.793 529.187 312.793C528.342 312.793 527.661 313.465 527.661 314.293V493.564C527.658 494.396 528.342 495.068 529.187 495.068Z" fill="#7D97F4"/>
<path d="M630.895 495.068C631.094 495.068 631.296 495.028 631.492 494.947C632.268 494.624 632.63 493.744 632.3 492.981L554.183 312.571C553.853 311.808 552.953 311.456 552.181 311.779C551.405 312.102 551.043 312.982 551.372 313.745L629.49 494.155C629.737 494.725 630.301 495.068 630.895 495.068Z" fill="#7D97F4"/>
<path d="M582.641 495.068C582.84 495.068 583.042 495.028 583.238 494.947C584.014 494.624 584.376 493.744 584.047 492.981L505.929 312.571C505.6 311.808 504.7 311.456 503.927 311.779C503.151 312.102 502.789 312.982 503.118 313.745L581.236 494.155C581.484 494.725 582.048 495.068 582.641 495.068Z" fill="#7D97F4"/>
<path d="M485.416 314.808H556.977C558.167 314.808 559.129 313.863 559.129 312.695C559.129 311.528 558.164 310.583 556.977 310.583H485.416C484.226 310.583 483.264 311.528 483.264 312.695C483.261 313.859 484.226 314.808 485.416 314.808Z" fill="#7D97F4"/>
<path d="M516.324 342.243H564.721C565.565 342.243 566.25 341.571 566.25 340.743C566.25 339.915 565.565 339.243 564.721 339.243H516.324C515.479 339.243 514.794 339.915 514.794 340.743C514.798 341.571 515.479 342.243 516.324 342.243Z" fill="#7D97F4"/>
<path d="M579.57 373.362H531.173V376.362H579.57V373.362Z" fill="#7D97F4"/>
<path d="M593.946 407.484H545.549V410.484H593.946V407.484Z" fill="#7D97F4"/>
<path d="M560.625 444.603H609.023C609.867 444.603 610.552 443.932 610.552 443.103C610.552 442.275 609.867 441.604 609.023 441.604H560.625C559.781 441.604 559.096 442.275 559.096 443.103C559.096 443.932 559.781 444.603 560.625 444.603Z" fill="#7D97F4"/>
<path d="M575.2 478.722H623.598C624.442 478.722 625.127 478.05 625.127 477.222C625.127 476.394 624.442 475.722 623.598 475.722H575.2C574.356 475.722 573.671 476.394 573.671 477.222C573.674 478.054 574.356 478.722 575.2 478.722Z" fill="#7D97F4"/>
<path d="M488.338 308.437C491.853 308.74 497.957 309.236 502.769 309.448C505.661 309.575 507.328 309.291 508.286 308.906C508.283 309.014 508.283 309.115 508.276 309.213C508.254 309.718 507.843 310.123 507.331 310.152C498.24 310.661 491.012 310.328 488.436 310.171C487.904 310.139 487.588 309.562 487.859 309.108C487.992 308.88 488.158 308.658 488.338 308.437Z" fill="url(#paint14_linear_81_186)"/>
<path d="M502.766 309.448C497.956 309.236 491.853 308.743 488.334 308.437C491.791 304.195 502.766 301.335 502.766 301.335H505.863C507.996 304.407 508.302 307.331 508.28 308.906C507.324 309.291 505.658 309.575 502.766 309.448Z" fill="url(#paint15_linear_81_186)"/>
<path d="M506.389 296.278L506.098 302.017C506.066 302.64 505.603 303.161 504.98 303.249C504.36 303.337 503.532 303.35 502.652 303.057C502.111 302.878 501.71 302.421 501.608 301.863L500.607 296.278H506.389Z" fill="url(#paint16_linear_81_186)"/>
<path d="M546.641 309.405C548.167 309.193 548.855 308.401 549.145 307.553C549.148 307.56 549.148 307.57 549.151 307.576C549.376 308.469 548.855 309.395 547.815 309.836C546.559 310.367 545.183 310.458 544.117 310.416C542.973 310.37 541.923 309.894 541.345 309.138L541.336 309.125C542.487 309.692 544.097 309.757 546.641 309.405Z" fill="url(#paint17_linear_81_186)"/>
<path d="M539.451 296.242H542.007C545.901 296.164 548.346 304.374 549.145 307.553C548.855 308.401 548.167 309.193 546.641 309.405C544.097 309.761 542.487 309.692 541.336 309.125C539.233 306.357 538.189 302.304 537.687 299.94C537.12 297.247 539.451 296.242 539.451 296.242Z" fill="url(#paint18_linear_81_186)"/>
<path d="M541.678 290.915L543.096 296.559C543.269 297.25 542.94 297.967 542.301 298.293C541.508 298.701 540.39 299.128 539.363 299.004C538.88 298.945 538.479 298.606 538.32 298.15L536.236 292.212L541.678 290.915Z" fill="url(#paint19_linear_81_186)"/>
<path d="M543.37 292.545C541.603 294.11 535.861 294.319 535.861 294.319C515.173 244.666 506.711 237.613 506.711 237.613C509.698 256.355 507.194 297.843 507.194 297.843C503.78 299.35 499.378 297.843 499.378 297.843C499.101 267.161 494.386 240.404 488.814 219.312C502.795 218.999 510.233 214.212 512.659 212.292C524.315 231.082 543.37 292.545 543.37 292.545Z" fill="url(#paint20_linear_81_186)"/>
<path d="M509.111 155.192C511.759 168.394 510.81 192.02 510.187 202.797C510.011 205.826 512.127 210.025 513.836 212.888C514.103 213.338 513.937 213.912 513.474 214.153C510.611 215.624 500.917 220.182 489.684 220.749C488.934 220.789 488.266 220.277 488.074 219.553C479.74 188.434 470.059 168.55 470.059 168.55C480.741 151.484 509.111 155.192 509.111 155.192Z" fill="url(#paint21_linear_81_186)"/>
<path d="M505.299 236.44C505.417 236.44 505.537 236.407 505.645 236.342C505.958 236.149 506.056 235.745 505.867 235.432C505.756 235.249 503.079 230.923 497.663 228.311C497.334 228.154 496.939 228.288 496.779 228.621C496.62 228.95 496.76 229.348 497.089 229.504C502.137 231.94 504.709 236.081 504.735 236.12C504.859 236.325 505.078 236.44 505.299 236.44Z" fill="url(#paint22_linear_81_186)"/>
<path d="M525.711 193.08C524.86 199.229 522.349 205.937 517.325 213.061L515.414 211.502C515.414 211.502 517.618 202.555 516.366 192.405C519.464 191.802 523.125 192.425 525.711 193.08Z" fill="url(#paint23_linear_81_186)"/>
<path d="M506.154 171.482L509.111 155.195C509.111 155.195 528.861 170.292 525.711 193.08C523.125 192.425 519.467 191.802 516.366 192.408C515.463 185.092 512.766 177.155 506.154 171.482Z" fill="url(#paint24_linear_81_186)"/>
<path d="M472.237 165.358L479.12 182.147C473.277 190.25 458.464 192.721 452.637 191.404C454.493 187.27 455.246 183.52 455.53 180.797C465.602 177.683 472.237 165.358 472.237 165.358Z" fill="url(#paint25_linear_81_186)"/>
<path d="M455.53 180.801C455.246 183.523 454.496 187.273 452.637 191.407C436.347 189.262 438.33 177.204 438.33 177.204L441.053 178.127C446.338 181.789 451.242 182.128 455.53 180.801Z" fill="url(#paint26_linear_81_186)"/>
<path d="M477.079 148.279L480.76 161.807C481.174 163.327 482.818 164.142 484.282 163.558C485.86 162.926 487.862 162.065 489.587 161.136C491.426 160.141 492.003 157.774 490.839 156.039L483.186 144.631L477.079 148.279Z" fill="url(#paint27_linear_81_186)"/>
<path d="M471.617 134.594C471.526 134.81 470.691 150.307 470.691 150.307L479.55 150.597L482.524 136.026C482.524 136.026 473.143 130.972 471.617 134.594Z" fill="url(#paint28_linear_81_186)"/>
<path d="M479.808 138.735L478.843 146.528C478.83 146.629 478.807 146.724 478.768 146.815C478.53 147.383 477.565 149.28 475.687 148.175C473.981 147.174 472.41 146.284 471.151 146.336C470.587 146.359 470.131 146.809 470.101 147.373C470.026 148.781 469.915 151.957 470.238 154.732C470.303 155.296 470.792 155.71 471.36 155.694C473.068 155.645 476.665 155.443 479.521 154.602C479.909 154.487 480.203 154.174 480.287 153.78C480.705 151.856 481.989 146.02 482.599 144.448C483.173 142.974 485.276 142.55 486.173 142.433C486.466 142.394 486.73 142.241 486.906 142.003C487.526 141.158 488.612 139.117 486.101 137.509C485.576 137.174 485.433 136.476 485.788 135.961C486.489 134.934 487.112 133.254 485.237 131.748C483.333 130.219 481.419 130.949 480.307 131.657C479.857 131.944 479.277 131.852 478.911 131.464C478.703 131.243 478.396 131.109 477.946 131.246C477.34 131.435 476.707 131.034 476.583 130.411C476.342 129.215 475.586 127.806 473.378 127.617C469.462 127.281 467.952 131.324 468.308 134.017C468.663 136.711 472.928 136.831 475.266 136.13C477.043 135.599 478.781 137.095 479.511 137.842C479.74 138.08 479.85 138.409 479.808 138.735Z" fill="url(#paint29_linear_81_186)"/>
<path d="M482.218 147.285C482.218 147.285 481.803 142.567 483.662 141.924C485.521 141.282 487.721 142.44 486.391 145.433C484.735 149.153 482.218 147.285 482.218 147.285Z" fill="url(#paint30_linear_81_186)"/>
<path d="M516.203 211.232L507.289 210.505L503.428 214.065C503.428 214.065 504.341 215.327 507.197 214.603C510.054 213.876 513.966 213.7 513.966 213.7C513.966 213.7 517.908 215.477 517.957 212.151L516.203 211.232Z" fill="url(#paint31_linear_81_186)"/>
<path d="M248.706 88.3492L246.186 89.9698C245.837 90.1947 245.374 90.0937 245.152 89.748C244.927 89.3992 245.028 88.9362 245.377 88.7112L247.901 87.0874C248.25 86.8624 248.713 86.9635 248.938 87.3124C249.163 87.6613 249.055 88.1243 248.706 88.3492Z" fill="#D8E3FF"/>
<path d="M241.781 92.8196L239.273 94.4564C238.931 94.6814 238.468 94.5869 238.24 94.2445C238.015 93.8989 238.109 93.4359 238.455 93.2109L240.966 91.5675C241.311 91.3425 241.774 91.4371 241.999 91.7827C242.227 92.1284 242.13 92.5914 241.781 92.8196Z" fill="#D8E3FF"/>
<path d="M234.897 97.3421L232.406 99.005C232.067 99.2332 231.604 99.1419 231.376 98.8028C231.148 98.4637 231.239 98.0007 231.578 97.7725L234.072 96.1063C234.415 95.8781 234.874 95.9694 235.103 96.3117C235.331 96.6476 235.24 97.1106 234.897 97.3421Z" fill="#D8E3FF"/>
<path d="M228.06 101.933L225.588 103.625C225.252 103.857 224.793 103.772 224.561 103.436C224.33 103.1 224.414 102.637 224.75 102.406L227.225 100.71C227.561 100.479 228.024 100.567 228.252 100.903C228.484 101.238 228.396 101.701 228.06 101.933Z" fill="#D8E3FF"/>
<path d="M221.285 106.615L218.839 108.34L218.836 108.343C218.503 108.578 218.044 108.496 217.812 108.167C217.577 107.835 217.656 107.378 217.988 107.143L220.44 105.412C220.773 105.177 221.232 105.255 221.467 105.588C221.702 105.921 221.624 106.38 221.291 106.615H221.285Z" fill="#D8E3FF"/>
<path d="M214.581 111.392L212.165 113.159L212.161 113.163C211.835 113.401 211.376 113.329 211.138 113.003C210.9 112.677 210.971 112.217 211.297 111.979L213.72 110.205C214.046 109.967 214.506 110.036 214.744 110.365C214.982 110.691 214.913 111.151 214.584 111.389L214.581 111.392Z" fill="#D8E3FF"/>
<path d="M207.965 116.289L205.581 118.102L205.578 118.106C205.259 118.35 204.799 118.288 204.558 117.965C204.313 117.646 204.375 117.186 204.698 116.945L207.088 115.125C207.407 114.881 207.867 114.943 208.112 115.262C208.356 115.582 208.294 116.042 207.975 116.286L207.965 116.289Z" fill="#D8E3FF"/>
<path d="M201.447 121.314L199.106 123.176L199.103 123.179C198.79 123.43 198.333 123.378 198.082 123.062C197.831 122.749 197.883 122.292 198.2 122.041L200.55 120.17C200.863 119.918 201.323 119.971 201.571 120.284C201.822 120.597 201.77 121.056 201.454 121.304L201.447 121.314Z" fill="#D8E3FF"/>
<path d="M195.046 126.482L192.751 128.402L192.744 128.406C192.438 128.663 191.981 128.621 191.727 128.314C191.469 128.008 191.512 127.551 191.818 127.297L194.123 125.367C194.43 125.109 194.886 125.152 195.144 125.458C195.402 125.765 195.359 126.221 195.053 126.479L195.046 126.482Z" fill="#D8E3FF"/>
<path d="M188.779 131.813L186.539 133.796L186.533 133.802C186.236 134.066 185.779 134.037 185.519 133.74C185.255 133.443 185.284 132.987 185.581 132.726L187.83 130.731C188.127 130.467 188.584 130.493 188.848 130.793C189.112 131.089 189.086 131.546 188.786 131.81L188.779 131.813Z" fill="#D8E3FF"/>
<path d="M182.676 137.324L180.501 139.375L180.494 139.381C180.207 139.652 179.754 139.639 179.48 139.352C179.21 139.065 179.223 138.612 179.51 138.341L181.698 136.277C181.985 136.006 182.441 136.019 182.712 136.306C182.982 136.593 182.969 137.05 182.682 137.32L182.676 137.324Z" fill="#D8E3FF"/>
<path d="M176.757 143.026L174.658 145.152L174.651 145.159C174.374 145.439 173.924 145.442 173.644 145.165C173.363 144.888 173.36 144.438 173.637 144.158L175.75 142.016C176.027 141.735 176.48 141.732 176.761 142.009C177.041 142.286 177.044 142.739 176.767 143.02L176.757 143.026Z" fill="#D8E3FF"/>
<path d="M171.058 148.944L169.046 151.155L169.04 151.165C168.776 151.455 168.326 151.475 168.036 151.21C167.745 150.946 167.726 150.496 167.987 150.209L170.012 147.982C170.276 147.692 170.726 147.669 171.016 147.934C171.306 148.198 171.329 148.648 171.065 148.938L171.058 148.944Z" fill="#D8E3FF"/>
<path d="M165.616 155.097L163.712 157.396L163.705 157.406C163.458 157.705 163.011 157.748 162.711 157.5C162.411 157.252 162.369 156.806 162.616 156.506L164.537 154.187C164.785 153.887 165.231 153.845 165.535 154.093C165.835 154.341 165.877 154.787 165.629 155.09L165.616 155.097Z" fill="#D8E3FF"/>
<path d="M160.481 161.501L158.7 163.894L158.691 163.904C158.459 164.217 158.019 164.282 157.706 164.047C157.393 163.816 157.328 163.376 157.562 163.063L159.359 160.643C159.591 160.33 160.034 160.265 160.344 160.497C160.657 160.728 160.722 161.172 160.49 161.481L160.481 161.501Z" fill="#D8E3FF"/>
<path d="M155.707 168.175L154.074 170.67L154.064 170.683C153.852 171.006 153.418 171.097 153.095 170.885C152.773 170.673 152.681 170.239 152.893 169.917L154.543 167.393C154.755 167.07 155.189 166.979 155.515 167.191C155.841 167.403 155.929 167.836 155.717 168.162L155.707 168.175Z" fill="#D8E3FF"/>
<path d="M151.364 175.127L149.906 177.726L149.897 177.742C149.707 178.078 149.284 178.198 148.948 178.009C148.612 177.82 148.491 177.396 148.68 177.06L150.154 174.429C150.343 174.093 150.767 173.973 151.103 174.162C151.439 174.351 151.559 174.775 151.37 175.111L151.364 175.127Z" fill="#D8E3FF"/>
<path d="M147.526 182.366L146.274 185.065L146.264 185.085C146.104 185.434 145.69 185.584 145.341 185.421C144.993 185.258 144.843 184.847 145.002 184.501L146.271 181.762C146.43 181.413 146.845 181.263 147.193 181.423C147.542 181.583 147.692 181.997 147.533 182.346L147.526 182.366Z" fill="#D8E3FF"/>
<path d="M144.285 189.878L143.271 192.676L143.265 192.698C143.134 193.057 142.74 193.243 142.381 193.113C142.022 192.982 141.837 192.588 141.967 192.229L142.994 189.389C143.124 189.03 143.519 188.844 143.881 188.975C144.24 189.105 144.425 189.503 144.295 189.862L144.285 189.878Z" fill="#D8E3FF"/>
<path d="M141.726 197.648L140.982 200.527L140.976 200.55C140.881 200.918 140.506 201.137 140.138 201.042C139.769 200.948 139.551 200.573 139.646 200.204L140.399 197.276C140.493 196.908 140.868 196.686 141.237 196.781C141.605 196.875 141.827 197.25 141.732 197.619L141.726 197.648Z" fill="#D8E3FF"/>
<path d="M139.936 205.62L139.489 208.558L139.486 208.584C139.43 208.959 139.081 209.213 138.706 209.158C138.331 209.102 138.077 208.754 138.133 208.379L138.586 205.389C138.641 205.014 138.99 204.756 139.365 204.815C139.74 204.87 139.998 205.219 139.939 205.594L139.936 205.62Z" fill="#D8E3FF"/>
<path d="M138.977 213.733L138.843 216.7V216.726C138.827 217.101 138.507 217.391 138.132 217.375C137.757 217.358 137.467 217.039 137.484 216.664L137.617 213.641C137.634 213.266 137.953 212.973 138.328 212.989C138.703 213.005 138.996 213.325 138.98 213.7L138.977 213.733Z" fill="#D8E3FF"/>
<path d="M138.892 221.9L139.078 224.868L139.081 224.894C139.104 225.269 138.82 225.588 138.449 225.611C138.074 225.634 137.754 225.35 137.731 224.978L137.539 221.959C137.516 221.584 137.8 221.261 138.175 221.239C138.55 221.216 138.872 221.499 138.895 221.874L138.892 221.9Z" fill="#D8E3FF"/>
<path d="M139.681 230.032L140.177 232.964L140.18 232.99C140.242 233.358 139.994 233.704 139.626 233.766C139.257 233.828 138.912 233.58 138.85 233.215L138.344 230.235C138.283 229.866 138.53 229.517 138.899 229.455C139.267 229.393 139.616 229.641 139.678 230.01L139.681 230.032Z" fill="#D8E3FF"/>
<path d="M141.298 238.047C141.559 239.002 141.8 239.967 142.081 240.916C142.185 241.272 141.983 241.647 141.628 241.751C141.272 241.855 140.897 241.653 140.793 241.298V241.295C140.506 240.329 140.261 239.351 139.994 238.38C139.896 238.021 140.108 237.652 140.464 237.555C140.822 237.457 141.191 237.669 141.289 238.024L141.298 238.047Z" fill="#D8E3FF"/>
<path d="M143.701 245.859L144.771 248.634L144.781 248.657C144.914 249.002 144.742 249.387 144.399 249.521C144.054 249.655 143.669 249.482 143.535 249.139L142.446 246.319C142.312 245.973 142.485 245.589 142.828 245.455C143.173 245.321 143.561 245.494 143.692 245.836L143.701 245.859Z" fill="#D8E3FF"/>
<path d="M146.887 253.388L148.224 256.045L148.234 256.065C148.4 256.394 148.266 256.792 147.94 256.958C147.611 257.125 147.213 256.991 147.047 256.665L145.687 253.968C145.521 253.639 145.655 253.238 145.981 253.075C146.31 252.909 146.711 253.042 146.874 253.368L146.887 253.388Z" fill="#D8E3FF"/>
<path d="M150.78 260.584L152.358 263.108L152.368 263.124C152.561 263.434 152.466 263.842 152.156 264.037C151.847 264.23 151.439 264.138 151.243 263.825L149.642 261.266C149.447 260.956 149.541 260.545 149.854 260.353C150.164 260.16 150.575 260.252 150.767 260.565L150.78 260.584Z" fill="#D8E3FF"/>
<path d="M155.306 267.405L157.089 269.792L157.102 269.808C157.321 270.099 157.262 270.513 156.969 270.731C156.679 270.95 156.264 270.891 156.046 270.597L154.236 268.181C154.018 267.891 154.077 267.477 154.37 267.259C154.66 267.04 155.074 267.099 155.293 267.392L155.306 267.405Z" fill="#D8E3FF"/>
<path d="M160.376 273.839L162.339 276.082L162.349 276.095C162.587 276.369 162.561 276.78 162.287 277.021C162.013 277.259 161.602 277.233 161.364 276.959L159.375 274.693C159.137 274.419 159.163 274.005 159.437 273.767C159.711 273.529 160.125 273.555 160.363 273.829L160.376 273.839Z" fill="#D8E3FF"/>
<path d="M165.913 279.884L168.029 281.987L168.039 281.997C168.293 282.251 168.296 282.665 168.042 282.919C167.788 283.174 167.377 283.177 167.119 282.923L164.98 280.8C164.723 280.546 164.723 280.132 164.977 279.877C165.231 279.62 165.645 279.62 165.9 279.874L165.913 279.884Z" fill="#D8E3FF"/>
<path d="M171.847 285.547L174.09 287.514L174.1 287.523C174.371 287.761 174.397 288.169 174.159 288.44C173.924 288.71 173.513 288.736 173.242 288.501L170.976 286.519C170.706 286.281 170.68 285.873 170.914 285.603C171.152 285.332 171.56 285.306 171.831 285.541L171.847 285.547Z" fill="#D8E3FF"/>
<path d="M178.117 290.843L180.471 292.682L180.481 292.688C180.761 292.907 180.81 293.314 180.592 293.595C180.373 293.875 179.966 293.927 179.685 293.705L177.312 291.853C177.031 291.635 176.979 291.227 177.201 290.947C177.419 290.667 177.827 290.614 178.107 290.836L178.117 290.843Z" fill="#D8E3FF"/>
<path d="M184.671 295.789L187.116 297.504L187.126 297.511C187.416 297.713 187.488 298.114 187.283 298.404C187.081 298.694 186.679 298.766 186.389 298.56L183.924 296.836C183.634 296.63 183.562 296.229 183.768 295.939C183.973 295.649 184.374 295.577 184.664 295.782L184.671 295.789Z" fill="#D8E3FF"/>
<path d="M191.466 300.403L193.99 302.004L194 302.01C194.296 302.199 194.388 302.594 194.199 302.894C194.01 303.191 193.615 303.282 193.318 303.093L190.775 301.485C190.475 301.296 190.387 300.902 190.576 300.602C190.765 300.302 191.16 300.214 191.46 300.403H191.466Z" fill="#D8E3FF"/>
<path d="M198.467 304.703L201.059 306.193L201.069 306.197C201.372 306.373 201.479 306.761 201.303 307.064C201.127 307.367 200.739 307.475 200.436 307.299L197.828 305.802C197.521 305.626 197.417 305.238 197.593 304.932C197.769 304.625 198.157 304.521 198.463 304.697L198.467 304.703Z" fill="#D8E3FF"/>
<path d="M205.643 308.708L208.291 310.093L208.297 310.097C208.607 310.26 208.728 310.641 208.565 310.951C208.402 311.261 208.02 311.381 207.71 311.218L205.043 309.826C204.733 309.663 204.613 309.281 204.776 308.972C204.939 308.662 205.32 308.541 205.63 308.704L205.643 308.708Z" fill="#D8E3FF"/>
<path d="M212.976 312.428L215.676 313.713L215.683 313.716C215.996 313.866 216.129 314.241 215.979 314.554C215.83 314.867 215.455 315.001 215.142 314.851L212.425 313.559C212.109 313.409 211.975 313.034 212.125 312.718C212.275 312.402 212.65 312.268 212.967 312.418L212.976 312.428Z" fill="#D8E3FF"/>
<path d="M220.437 315.881L223.179 317.071L223.185 317.074C223.502 317.211 223.648 317.58 223.512 317.899C223.375 318.219 223.006 318.362 222.687 318.225L219.928 317.032C219.609 316.895 219.465 316.523 219.602 316.207C219.739 315.887 220.111 315.744 220.427 315.881H220.437Z" fill="#D8E3FF"/>
<path d="M228.017 319.073L230.799 320.172L230.805 320.175C231.125 320.302 231.281 320.664 231.157 320.984C231.03 321.303 230.668 321.46 230.349 321.336L227.551 320.234C227.232 320.107 227.072 319.745 227.199 319.425C227.326 319.106 227.688 318.946 228.008 319.073H228.017Z" fill="#D8E3FF"/>
<path d="M235.699 322.014L238.517 323.022L238.523 323.025C238.846 323.139 239.012 323.494 238.898 323.817C238.784 324.14 238.429 324.306 238.106 324.192L235.276 323.181C234.953 323.067 234.783 322.712 234.901 322.386C235.015 322.063 235.37 321.894 235.696 322.011L235.699 322.014Z" fill="#D8E3FF"/>
<path d="M243.47 324.711L246.316 325.633L246.323 325.637C246.646 325.741 246.825 326.09 246.721 326.413C246.616 326.736 246.267 326.915 245.945 326.811L243.085 325.888C242.759 325.783 242.583 325.435 242.687 325.108C242.792 324.782 243.14 324.606 243.467 324.711H243.47Z" fill="#D8E3FF"/>
<path d="M251.321 327.172L254.194 328.007L254.2 328.01C254.526 328.105 254.712 328.444 254.618 328.77C254.523 329.096 254.184 329.282 253.858 329.187L250.972 328.349C250.646 328.255 250.457 327.912 250.552 327.586C250.646 327.26 250.989 327.071 251.315 327.166L251.321 327.172Z" fill="#D8E3FF"/>
<path d="M259.241 329.393L262.137 330.143H262.143C262.469 330.227 262.665 330.56 262.58 330.886C262.495 331.212 262.163 331.408 261.837 331.323L258.925 330.573C258.599 330.488 258.4 330.156 258.485 329.83C258.57 329.504 258.902 329.305 259.228 329.389L259.241 329.393Z" fill="#D8E3FF"/>
<path d="M267.226 331.375L270.145 332.037H270.151C270.477 332.112 270.683 332.435 270.608 332.764C270.533 333.09 270.21 333.296 269.881 333.221L266.949 332.559C266.62 332.484 266.415 332.158 266.49 331.832C266.565 331.502 266.891 331.297 267.217 331.372L267.226 331.375Z" fill="#D8E3FF"/>
<path d="M275.267 333.116L278.205 333.687H278.211C278.538 333.752 278.753 334.069 278.688 334.395C278.622 334.721 278.306 334.936 277.98 334.871L275.029 334.297C274.7 334.235 274.488 333.915 274.55 333.589C274.615 333.26 274.931 333.048 275.261 333.11L275.267 333.116Z" fill="#D8E3FF"/>
<path d="M283.36 334.61L286.314 335.089H286.32C286.646 335.141 286.871 335.451 286.816 335.777C286.764 336.103 286.454 336.328 286.128 336.273L283.161 335.793C282.831 335.741 282.61 335.432 282.662 335.102C282.714 334.773 283.024 334.551 283.353 334.603L283.36 334.61Z" fill="#D8E3FF"/>
<path d="M291.492 335.842L294.459 336.23H294.462C294.788 336.273 295.02 336.573 294.977 336.902C294.935 337.231 294.635 337.459 294.309 337.417L291.332 337.029C291.002 336.987 290.774 336.687 290.817 336.357C290.859 336.028 291.159 335.797 291.488 335.842H291.492Z" fill="#D8E3FF"/>
<path d="M299.66 336.853L302.637 337.176H302.64C302.966 337.212 303.201 337.505 303.168 337.831C303.132 338.157 302.839 338.392 302.513 338.36L299.526 338.037C299.2 338.001 298.962 337.707 298.998 337.381C299.034 337.055 299.327 336.817 299.653 336.853H299.66Z" fill="#D8E3FF"/>
<path d="M307.85 337.685L310.834 337.939H310.84C311.166 337.968 311.407 338.252 311.378 338.578C311.349 338.904 311.065 339.145 310.739 339.116L307.746 338.862C307.42 338.832 307.178 338.549 307.205 338.223C307.231 337.897 307.518 337.655 307.844 337.681L307.85 337.685Z" fill="#D8E3FF"/>
<path d="M316.057 338.324L319.044 338.51H319.051C319.373 338.529 319.621 338.81 319.602 339.132C319.582 339.455 319.302 339.703 318.979 339.683L315.982 339.501C315.656 339.481 315.412 339.201 315.431 338.878C315.451 338.552 315.731 338.307 316.054 338.327H316.057V338.324Z" fill="#D8E3FF"/>
<path d="M324.277 338.774L327.267 338.888H327.274C327.597 338.901 327.848 339.171 327.835 339.494C327.822 339.817 327.551 340.068 327.228 340.055L324.225 339.944C323.902 339.931 323.648 339.661 323.661 339.338C323.674 339.015 323.945 338.761 324.268 338.774H324.277Z" fill="#D8E3FF"/>
<path d="M332.504 339.018L335.497 339.057H335.503C335.823 339.06 336.081 339.325 336.077 339.647C336.074 339.97 335.81 340.225 335.487 340.221L332.484 340.185C332.161 340.182 331.904 339.918 331.91 339.595C331.914 339.272 332.178 339.015 332.5 339.018H332.504Z" fill="#D8E3FF"/>
<path d="M340.734 339.06L343.727 339.021H343.733C344.053 339.018 344.314 339.272 344.32 339.592C344.323 339.911 344.069 340.172 343.75 340.179L340.747 340.218C340.427 340.221 340.163 339.967 340.16 339.647C340.156 339.328 340.411 339.064 340.73 339.06H340.734Z" fill="#D8E3FF"/>
<path d="M348.963 338.888L351.953 338.77H351.96C352.276 338.757 352.543 339.005 352.556 339.321C352.569 339.638 352.322 339.905 352.005 339.918L349.002 340.035C348.683 340.048 348.415 339.801 348.402 339.481C348.389 339.165 348.637 338.894 348.957 338.881L348.963 338.888Z" fill="#D8E3FF"/>
<path d="M357.183 338.496L360.17 338.301H360.177C360.493 338.281 360.763 338.519 360.786 338.832C360.806 339.148 360.568 339.419 360.255 339.442L357.258 339.641C356.942 339.664 356.668 339.422 356.649 339.106C356.629 338.79 356.867 338.516 357.183 338.496Z" fill="#D8E3FF"/>
<path d="M365.39 337.884L368.37 337.603H368.377C368.69 337.574 368.967 337.805 368.997 338.115C369.026 338.428 368.798 338.705 368.485 338.735L365.495 339.018C365.182 339.048 364.904 338.819 364.875 338.506C364.846 338.193 365.074 337.916 365.39 337.887V337.884Z" fill="#D8E3FF"/>
<path d="M373.574 337.045L376.545 336.683H376.551C376.861 336.644 377.145 336.866 377.18 337.176C377.22 337.486 376.998 337.769 376.688 337.805L373.708 338.17C373.398 338.209 373.114 337.988 373.075 337.678C373.036 337.368 373.258 337.084 373.568 337.045H373.574Z" fill="#D8E3FF"/>
<path d="M381.732 335.973L384.69 335.526H384.696C385.003 335.48 385.29 335.692 385.335 335.999C385.381 336.305 385.172 336.592 384.863 336.638L381.892 337.091C381.586 337.137 381.299 336.925 381.25 336.618C381.204 336.312 381.416 336.025 381.723 335.976L381.732 335.973Z" fill="#D8E3FF"/>
<path d="M389.858 334.668L392.802 334.134H392.809C393.112 334.078 393.402 334.28 393.457 334.584C393.513 334.887 393.311 335.177 393.007 335.232L390.053 335.77C389.75 335.826 389.457 335.624 389.401 335.321C389.346 335.017 389.548 334.724 389.851 334.668H389.858Z" fill="#D8E3FF"/>
<path d="M397.941 333.126L400.869 332.507H400.875C401.175 332.441 401.472 332.634 401.534 332.934C401.599 333.234 401.407 333.53 401.107 333.592L398.169 334.218C397.869 334.284 397.572 334.091 397.507 333.788C397.442 333.485 397.634 333.191 397.937 333.126H397.941Z" fill="#D8E3FF"/>
<path d="M405.972 331.343L408.88 330.635H408.887C409.183 330.563 409.483 330.746 409.555 331.043C409.627 331.34 409.444 331.639 409.151 331.711L406.233 332.425C405.936 332.497 405.636 332.314 405.564 332.018C405.492 331.721 405.675 331.421 405.972 331.349V331.343Z" fill="#D8E3FF"/>
<path d="M413.95 329.321L416.836 328.526H416.842C417.136 328.444 417.436 328.617 417.517 328.91C417.599 329.204 417.426 329.507 417.133 329.585L414.237 330.384C413.944 330.466 413.641 330.293 413.559 329.999C413.477 329.706 413.65 329.403 413.944 329.321H413.95Z" fill="#D8E3FF"/>
<path d="M421.861 327.058L424.72 326.175L424.727 326.171C425.014 326.083 425.32 326.243 425.408 326.533C425.496 326.82 425.336 327.127 425.046 327.215L422.177 328.102C421.887 328.19 421.58 328.03 421.492 327.74C421.404 327.45 421.564 327.143 421.854 327.055L421.861 327.058Z" fill="#D8E3FF"/>
<path d="M429.699 324.557L432.533 323.589L432.536 323.586C432.82 323.488 433.129 323.641 433.224 323.925C433.322 324.208 433.168 324.518 432.885 324.613L430.045 325.588C429.761 325.686 429.451 325.532 429.354 325.249C429.256 324.965 429.409 324.655 429.693 324.557H429.699Z" fill="#D8E3FF"/>
<path d="M437.476 321.845L440.293 320.827C440.573 320.726 440.883 320.87 440.984 321.15C441.085 321.43 440.942 321.74 440.661 321.845L437.841 322.865C437.56 322.966 437.251 322.823 437.15 322.539C437.045 322.259 437.192 321.949 437.476 321.845Z" fill="#D8E3FF"/>
<path d="M445.213 319.018L448.02 317.968C448.298 317.863 448.607 318.003 448.712 318.281C448.816 318.558 448.676 318.868 448.399 318.972L445.591 320.025C445.314 320.129 445.004 319.989 444.9 319.712C444.792 319.432 444.933 319.122 445.213 319.018Z" fill="#D8E3FF"/>
<path d="M452.921 316.106L455.719 315.03C455.993 314.922 456.302 315.059 456.41 315.333C456.518 315.607 456.381 315.917 456.103 316.024L453.306 317.104C453.032 317.211 452.722 317.071 452.615 316.797C452.507 316.52 452.644 316.21 452.921 316.106Z" fill="#D8E3FF"/>
<path d="M460.61 313.132L463.401 312.043C463.674 311.935 463.981 312.069 464.089 312.343C464.196 312.617 464.063 312.923 463.789 313.031L460.998 314.123C460.724 314.231 460.417 314.094 460.31 313.823C460.199 313.546 460.336 313.24 460.61 313.132Z" fill="#D8E3FF"/>
<path d="M468.285 310.126L471.076 309.03C471.347 308.923 471.653 309.056 471.758 309.327C471.865 309.598 471.732 309.904 471.461 310.009L468.67 311.107C468.399 311.215 468.093 311.081 467.985 310.811C467.881 310.54 468.014 310.234 468.285 310.126Z" fill="#D8E3FF"/>
<path d="M475.96 307.113L478.755 306.021C479.025 305.916 479.329 306.047 479.433 306.317C479.537 306.588 479.404 306.891 479.136 306.996L476.345 308.091C476.075 308.199 475.771 308.065 475.664 307.795C475.556 307.524 475.69 307.221 475.96 307.113Z" fill="#D8E3FF"/>
<path d="M483.646 304.12L486.443 303.041C486.711 302.936 487.014 303.07 487.115 303.337C487.219 303.605 487.082 303.908 486.815 304.012L484.021 305.092C483.753 305.196 483.45 305.062 483.346 304.795C483.241 304.527 483.375 304.224 483.646 304.12Z" fill="#D8E3FF"/>
<path d="M491.347 301.169L494.155 300.113C494.422 300.012 494.719 300.149 494.82 300.416C494.921 300.683 494.784 300.983 494.517 301.084L491.713 302.141C491.445 302.242 491.145 302.108 491.044 301.841C490.946 301.573 491.08 301.273 491.347 301.169Z" fill="#D8E3FF"/>
<path d="M499.081 298.29L501.902 297.266C502.169 297.168 502.463 297.305 502.561 297.572C502.658 297.84 502.518 298.137 502.251 298.231L499.437 299.255C499.17 299.353 498.873 299.216 498.775 298.952C498.674 298.688 498.811 298.391 499.081 298.29Z" fill="#D8E3FF"/>
<path d="M506.852 295.509L509.688 294.527C509.956 294.436 510.246 294.576 510.337 294.843C510.429 295.111 510.285 295.401 510.018 295.496L507.187 296.477C506.92 296.572 506.627 296.431 506.535 296.164C506.441 295.897 506.581 295.606 506.852 295.509Z" fill="#D8E3FF"/>
<path d="M514.664 292.851L517.517 291.922C517.784 291.834 518.071 291.981 518.156 292.248C518.244 292.515 518.094 292.802 517.827 292.89L514.98 293.819C514.713 293.908 514.426 293.764 514.335 293.5C514.247 293.233 514.39 292.946 514.654 292.854L514.664 292.851Z" fill="#D8E3FF"/>
<path d="M522.532 290.344L525.404 289.473C525.672 289.392 525.952 289.542 526.034 289.809C526.115 290.076 525.965 290.357 525.698 290.438H525.695L522.829 291.309H522.825C522.558 291.39 522.274 291.24 522.196 290.973C522.118 290.706 522.265 290.425 522.532 290.344Z" fill="#D8E3FF"/>
<path d="M530.452 288.012L533.347 287.214C533.615 287.139 533.892 287.295 533.964 287.562C534.039 287.83 533.882 288.104 533.615 288.179H533.611L530.726 288.978H530.723C530.455 289.053 530.178 288.896 530.103 288.629C530.028 288.365 530.184 288.087 530.452 288.012Z" fill="#D8E3FF"/>
<path d="M538.431 285.883L541.352 285.173C541.619 285.107 541.89 285.27 541.952 285.538C542.017 285.805 541.854 286.076 541.587 286.138L541.58 286.141L538.675 286.849L538.669 286.852C538.401 286.917 538.131 286.754 538.065 286.487C538 286.219 538.163 285.949 538.431 285.883Z" fill="#D8E3FF"/>
<path d="M546.491 284.038L549.438 283.454C549.706 283.402 549.966 283.575 550.019 283.842C550.071 284.109 549.898 284.37 549.631 284.423H549.624L546.69 285.006H546.683C546.416 285.058 546.155 284.886 546.099 284.618C546.047 284.354 546.22 284.093 546.491 284.038Z" fill="#D8E3FF"/>
<path d="M554.62 282.544L557.59 282.088C557.857 282.045 558.108 282.231 558.151 282.499C558.193 282.766 558.007 283.017 557.74 283.059H557.733L554.779 283.516H554.773C554.502 283.558 554.251 283.372 554.212 283.105C554.166 282.838 554.352 282.587 554.62 282.544Z" fill="#D8E3FF"/>
<path d="M562.807 281.403L565.797 281.08C566.064 281.051 566.306 281.247 566.335 281.514C566.364 281.781 566.169 282.023 565.901 282.052H565.895L562.921 282.378H562.915C562.647 282.407 562.403 282.212 562.373 281.944C562.344 281.677 562.54 281.432 562.807 281.403Z" fill="#D8E3FF"/>
<path d="M571.036 280.63L574.036 280.441C574.304 280.425 574.535 280.627 574.551 280.895C574.568 281.162 574.366 281.393 574.098 281.41H574.092L571.108 281.599H571.102C570.834 281.615 570.603 281.413 570.587 281.146C570.567 280.878 570.769 280.647 571.036 280.63Z" fill="#D8E3FF"/>
<path d="M579.296 280.229L582.309 280.18C582.576 280.177 582.794 280.389 582.798 280.653C582.801 280.921 582.589 281.139 582.325 281.142H582.299L579.319 281.195H579.309C579.041 281.198 578.823 280.986 578.816 280.718C578.816 280.454 579.028 280.236 579.296 280.229Z" fill="#D8E3FF"/>
<path d="M587.578 280.425L590.577 280.669C590.841 280.692 591.037 280.921 591.014 281.185C590.991 281.449 590.763 281.644 590.499 281.622H590.489L587.512 281.38H587.503C587.238 281.357 587.043 281.129 587.062 280.865C587.082 280.601 587.313 280.405 587.578 280.425Z" fill="#D8E3FF"/>
<path d="M595.807 281.244L598.788 281.648C599.048 281.684 599.228 281.922 599.192 282.183C599.156 282.44 598.918 282.623 598.657 282.587H598.647L595.687 282.186H595.677C595.416 282.15 595.234 281.912 595.269 281.651C595.309 281.39 595.547 281.208 595.807 281.244Z" fill="#D8E3FF"/>
<path d="M603.982 282.489L606.936 283.043C607.19 283.092 607.36 283.337 607.311 283.591C607.262 283.845 607.017 284.015 606.763 283.966H606.757L603.819 283.418H603.809C603.555 283.369 603.385 283.125 603.431 282.867C603.48 282.61 603.727 282.44 603.982 282.489Z" fill="#D8E3FF"/>
<path d="M612.081 284.145L615.003 284.853C615.254 284.915 615.407 285.166 615.345 285.414C615.283 285.665 615.032 285.818 614.784 285.756L614.774 285.753L611.869 285.055L611.859 285.052C611.608 284.99 611.455 284.739 611.514 284.488C611.579 284.24 611.83 284.087 612.081 284.145Z" fill="#D8E3FF"/>
<path d="M620.086 286.226L622.965 287.09C623.21 287.161 623.347 287.419 623.275 287.663C623.203 287.908 622.945 288.045 622.701 287.973L622.691 287.97L619.828 287.116L619.819 287.112C619.574 287.041 619.434 286.78 619.509 286.535C619.584 286.291 619.841 286.151 620.086 286.226Z" fill="#D8E3FF"/>
<path d="M627.963 288.743L630.79 289.773C631.028 289.858 631.149 290.122 631.064 290.36C630.976 290.598 630.715 290.719 630.477 290.634L630.468 290.631L627.66 289.61L627.65 289.607C627.412 289.519 627.288 289.258 627.377 289.02C627.461 288.779 627.725 288.658 627.963 288.743Z" fill="#D8E3FF"/>
<path d="M635.678 291.733L638.433 292.943C638.662 293.044 638.766 293.311 638.665 293.539C638.564 293.768 638.296 293.872 638.068 293.771L638.058 293.768L635.323 292.571L635.313 292.568C635.081 292.467 634.977 292.199 635.078 291.968C635.179 291.736 635.447 291.632 635.678 291.733Z" fill="#D8E3FF"/>
<path d="M643.181 295.222L645.845 296.621C646.063 296.735 646.148 297.009 646.034 297.227C645.92 297.445 645.646 297.53 645.427 297.416L645.418 297.41L642.773 296.024L642.763 296.017C642.542 295.903 642.457 295.629 642.574 295.408C642.685 295.192 642.959 295.108 643.181 295.222Z" fill="#D8E3FF"/>
<path d="M650.413 299.245L652.963 300.846C653.171 300.977 653.233 301.25 653.103 301.459C652.972 301.668 652.699 301.73 652.49 301.599L652.48 301.593L649.95 300.008L649.94 300.002C649.731 299.871 649.666 299.594 649.8 299.385C649.927 299.177 650.204 299.115 650.413 299.245Z" fill="#D8E3FF"/>
<path d="M657.309 303.826L659.719 305.636C659.914 305.783 659.953 306.06 659.807 306.255C659.66 306.451 659.383 306.49 659.187 306.344L659.177 306.334L656.791 304.544L656.781 304.534C656.585 304.387 656.546 304.11 656.693 303.914C656.836 303.722 657.113 303.68 657.309 303.826Z" fill="#D8E3FF"/>
<path d="M663.788 308.991L666.021 311.013C666.201 311.176 666.214 311.453 666.051 311.629C665.887 311.808 665.61 311.822 665.434 311.662L665.425 311.652L663.211 309.653L663.201 309.643C663.021 309.48 663.005 309.203 663.168 309.024C663.328 308.841 663.605 308.828 663.788 308.991Z" fill="#D8E3FF"/>
<path d="M669.758 314.733L671.786 316.963C671.946 317.139 671.933 317.413 671.757 317.576C671.581 317.736 671.307 317.723 671.144 317.547L671.134 317.537L669.125 315.333L669.116 315.323C668.953 315.147 668.966 314.87 669.145 314.71C669.321 314.541 669.595 314.554 669.758 314.733Z" fill="#D8E3FF"/>
<path d="M255.364 71.1953L257.803 82.6009L264.478 76.0438L255.364 71.1953Z" fill="#7D97F4"/>
<path d="M305.248 53.6694L280.23 87.2798C279.75 87.9221 279.03 88.3427 278.234 88.4471C277.439 88.5481 276.637 88.3232 276.01 87.8178L243.212 61.4264C242.837 61.1232 242.681 60.6243 242.821 60.1646C242.961 59.7016 243.365 59.3722 243.845 59.3266L305.248 53.6694Z" fill="#91B3FA"/>
<path d="M255.368 71.1952L305.248 53.6694L260.647 75.4698L261.188 78.662L255.368 71.1952Z" fill="#7D97F4"/>
<path d="M263.796 77.9804L257.803 82.6007L260.646 75.4697L263.796 77.9804Z" fill="#7D97F4"/>
<path d="M265.257 426.927L265.739 432.356C265.739 432.356 263.075 463.893 262.521 476.492C262.433 478.468 262.945 480.421 263.982 482.103L269.391 490.884L255.648 482.775L255.374 481.099L257.624 478.005L254.676 442.715C254.503 440.642 254.93 438.565 255.909 436.726L258.752 431.385L265.257 426.927Z" fill="url(#paint32_linear_81_186)"/>
<path d="M270.298 492.159H265.912C265.091 492.159 264.318 491.781 263.816 491.132C262.45 489.355 259.616 485.889 258.26 485.798C256.437 485.677 256.669 492.159 256.669 492.159H255.645L254.35 484.102C254.024 482.074 255.032 480.069 256.851 479.117C256.851 479.117 257.269 482.198 259.528 483.564C261.788 484.927 268.726 489.811 268.726 489.811C268.726 489.811 269.577 489.691 270.51 489.86C271.896 490.111 271.703 492.159 270.298 492.159Z" fill="url(#paint33_linear_81_186)"/>
<path d="M253.441 426.927L254.37 432.392C254.37 432.392 251.26 463.896 250.705 476.495C250.617 478.471 251.129 480.424 252.166 482.107L257.575 490.888L243.832 482.778L243.558 481.102L245.808 478.008L242.86 442.719C242.687 440.645 243.115 438.568 244.093 436.729L246.936 431.388L253.441 426.927Z" fill="url(#paint34_linear_81_186)"/>
<path d="M237.75 390.784C238.497 384.758 246.039 379.075 246.039 379.075C255.566 382.485 262.358 377.438 262.358 377.438C262.358 377.438 265.325 383.532 265.355 389.74C265.387 395.948 265.766 435.809 265.766 435.809C254.751 440.426 243.378 438.16 243.378 438.16C244.233 423.81 237.004 396.806 237.75 390.784Z" fill="url(#paint35_linear_81_186)"/>
<path d="M304.199 322.562C303.987 321.991 303.181 321.975 302.947 322.539C302.076 324.619 300.152 328.203 296.941 329.158C296.778 329.207 296.624 329.256 296.478 329.308C296.393 328.878 296.452 328.395 296.843 327.932C297.971 326.605 296.51 324.414 296.51 324.414C296.51 324.414 296.178 326.139 294.717 327.068C293.458 327.867 292.65 329.898 293.21 331.718C294.055 338.324 295.457 347.098 285.069 352.071C274.684 357.046 262.91 342.823 262.91 342.823L267.432 359.629C267.432 359.629 276.836 368.582 290.247 359.342C303.657 350.101 297.632 333.443 297.632 333.443C297.632 333.443 307.303 330.89 304.199 322.562Z" fill="url(#paint36_linear_81_186)"/>
<path d="M254.021 316.993C254.021 316.993 244.39 315.333 244.807 326.22C244.882 328.209 240.94 330.407 242.11 333.968C242.717 335.807 242.088 337.802 240.483 338.885C236.489 341.578 230.91 346.951 233.378 354.93C235.263 361.021 239.195 361.81 242.603 361.115C245.104 360.607 247.627 362.084 248.244 364.562C248.834 366.939 250.669 369.143 255.368 369.352C265.9 369.818 267.24 350.851 267.24 350.851L256.604 323.866L254.021 316.993Z" fill="url(#paint37_linear_81_186)"/>
<path d="M258.479 492.159H254.093C253.271 492.159 252.499 491.781 251.997 491.132C250.63 489.355 247.797 485.889 246.44 485.798C244.618 485.677 244.849 492.159 244.849 492.159H243.825L242.531 484.102C242.205 482.074 243.212 480.069 245.032 479.117C245.032 479.117 245.449 482.198 247.709 483.564C249.968 484.927 256.907 489.811 256.907 489.811C256.907 489.811 257.758 489.691 258.691 489.86C260.08 490.111 259.887 492.159 258.479 492.159Z" fill="url(#paint38_linear_81_186)"/>
<path d="M246.124 379.303C250.822 359.387 238.918 348.125 238.918 348.125C244.745 342.533 255.739 341.728 260.383 341.65C261.772 341.627 263.076 342.285 263.901 343.404C266.232 346.566 270.631 353.443 269.48 359.002C268.57 363.385 262.45 380.897 262.45 380.897C262.45 380.897 254.8 384.513 246.124 379.303Z" fill="url(#paint39_linear_81_186)"/>
<path d="M254.833 327.684L251.774 342.827C251.409 344.34 253.594 344.666 255.143 344.793C257.793 345.008 259.28 344.382 260.36 342.432C260.47 342.233 260.523 342.008 260.555 341.786L262.195 329.885C262.326 328.94 261.814 328.023 260.943 327.639L257.774 326.233C256.558 325.692 255.146 326.387 254.833 327.684Z" fill="url(#paint40_linear_81_186)"/>
<path d="M238.918 348.122C238.918 348.122 212.25 367.203 235.507 387.252C235.507 387.252 236.394 388.257 238.139 388.778C239.019 389.042 241.624 391.012 242.945 392.042C243.369 392.371 243.982 392.261 244.269 391.804C244.494 391.445 244.52 390.999 244.337 390.617L241.034 383.636C240.118 382.782 238.713 382.72 237.728 383.493C237.099 383.985 236.176 383.78 235.824 383.062C234.027 379.401 230.63 368.631 244.526 356.459C245.048 356.003 245.182 355.246 244.859 354.63C243.884 352.752 241.654 349.028 238.918 348.122Z" fill="url(#paint41_linear_81_186)"/>
<path d="M262.147 315.884C262.147 315.884 265.897 319.057 266.888 326.217C267.876 333.377 264.785 335.575 261.906 335.109C259.026 334.646 254.925 333.299 251.824 327.906C248.723 322.513 257.207 311.971 262.147 315.884Z" fill="url(#paint42_linear_81_186)"/>
<path d="M255.795 325.487C255.795 325.487 255.388 315.336 263.516 317.756L265.006 319.683C265.006 319.683 269.558 315.545 265.437 311.606C261.315 307.668 254.983 307.883 250.859 313.804C246.734 319.725 245.006 324.013 247.477 328.232C249.949 332.451 252.482 329.334 252.482 329.334C252.482 329.334 251.52 325.806 252.776 324.473C254.031 323.139 255.205 325.588 255.205 325.588L255.795 325.487Z" fill="url(#paint43_linear_81_186)"/>
<path d="M255.221 326.873C255.221 326.873 255.042 321.652 252.257 322.842C249.473 324.029 252.688 327.746 253.998 329.034L255.221 326.873Z" fill="url(#paint44_linear_81_186)"/>
<path d="M443.149 306.464C443.149 311.137 439.712 314.926 435.457 314.926H374.399C370.144 314.926 366.694 311.137 366.694 306.464V135.24C366.694 130.568 370.144 126.779 374.399 126.779H435.457C439.712 126.779 443.149 130.568 443.149 135.24V306.464Z" fill="url(#paint45_linear_81_186)"/>
<path d="M422.633 117.033H386.812C385.003 117.033 383.183 118.797 383.183 121.017V126.779H425.16V121.017C425.16 118.8 424.443 117.033 422.633 117.033Z" fill="url(#paint46_linear_81_186)"/>
<path d="M419.911 156.764H408.668V144.018H401.922V156.764H389.929V163.51H401.922V176.252H408.668V163.51H419.911V156.764Z" fill="url(#paint47_linear_81_186)"/>
<path d="M443.149 193.491V307.087C443.149 311.76 439.5 315.672 435.245 315.672H374.399C370.144 315.672 366.694 311.76 366.694 307.087V193.491H443.149Z" fill="url(#paint48_linear_81_186)"/>
<path d="M420.716 250.154C420.661 250.04 420.553 249.71 420.436 249.71H407.576C407.478 249.71 407.387 249.919 407.325 249.834C407.266 249.749 407.243 249.769 407.269 249.665L412.649 226.69C412.685 226.531 412.617 226.394 412.48 226.322C412.343 226.25 412.18 226.312 412.088 226.443L389.153 260.213C389.082 260.317 389.072 260.177 389.124 260.294C389.176 260.412 389.287 260.203 389.408 260.203H401.205C401.299 260.203 401.39 260.536 401.449 260.617C401.508 260.699 401.534 260.946 401.514 261.051L396.617 287.814C396.588 287.977 396.666 288.172 396.803 288.238C396.94 288.303 397.103 288.27 397.187 288.133L420.693 250.633C420.762 250.529 420.768 250.268 420.716 250.154Z" fill="#BDD0FB"/>
<path d="M714.031 341.199H578.781C575.892 341.199 573.547 338.855 573.547 335.966C573.547 333.077 575.892 330.733 578.781 330.733H714.031C716.919 330.733 719.264 333.077 719.264 335.966C719.264 338.855 716.923 341.199 714.031 341.199Z" fill="#BDD0FB"/>
<path d="M730.282 361.699H595.032C592.143 361.699 589.798 359.355 589.798 356.466C589.798 353.577 592.143 351.232 595.032 351.232H730.282C733.17 351.232 735.515 353.577 735.515 356.466C735.515 359.358 733.174 361.699 730.282 361.699Z" fill="#BDD0FB"/>
<path d="M691.823 402.701H595.032C592.143 402.701 589.798 400.357 589.798 397.468C589.798 394.579 592.143 392.234 595.032 392.234H691.823C694.712 392.234 697.056 394.579 697.056 397.468C697.056 400.357 694.712 402.701 691.823 402.701Z" fill="#BDD0FB"/>
<path d="M745.45 382.202H610.2C607.311 382.202 604.967 379.857 604.967 376.968C604.967 374.079 607.311 371.735 610.2 371.735H745.45C748.339 371.735 750.683 374.079 750.683 376.968C750.683 379.857 748.342 382.202 745.45 382.202Z" fill="#BDD0FB"/>
<path d="M200.844 370.114H65.5936C62.7047 370.114 60.3604 367.77 60.3604 364.881C60.3604 361.992 62.7047 359.648 65.5936 359.648H200.844C203.732 359.648 206.077 361.992 206.077 364.881C206.077 367.77 203.736 370.114 200.844 370.114Z" fill="#BDD0FB"/>
<path d="M217.095 390.614H81.8446C78.9557 390.614 76.6113 388.27 76.6113 385.381C76.6113 382.492 78.9557 380.147 81.8446 380.147H217.095C219.983 380.147 222.328 382.492 222.328 385.381C222.328 388.273 219.987 390.614 217.095 390.614Z" fill="#BDD0FB"/>
<path d="M178.636 431.616H81.8446C78.9557 431.616 76.6113 429.272 76.6113 426.383C76.6113 423.494 78.9557 421.149 81.8446 421.149H178.636C181.525 421.149 183.869 423.494 183.869 426.383C183.869 429.272 181.525 431.616 178.636 431.616Z" fill="#BDD0FB"/>
<path d="M232.263 411.113H97.0131C94.1242 411.113 91.7798 408.769 91.7798 405.88C91.7798 402.991 94.1242 400.647 97.0131 400.647H232.263C235.152 400.647 237.496 402.991 237.496 405.88C237.496 408.772 235.152 411.113 232.263 411.113Z" fill="#BDD0FB"/>
<g opacity="0.6">
<path d="M314.906 388.684C314.753 388.481 314.704 388.211 314.802 387.956C315.17 387.004 315.591 386.059 316.05 385.149C316.236 384.781 316.689 384.631 317.058 384.82C317.426 385.006 317.576 385.459 317.387 385.827C316.95 386.691 316.549 387.591 316.2 388.498C316.05 388.882 315.617 389.075 315.229 388.928C315.095 388.876 314.987 388.791 314.906 388.684Z" fill="#91B3FA"/>
<path d="M321.469 378.458C321.248 378.168 321.264 377.751 321.528 377.48C322.584 376.391 323.729 375.374 324.926 374.454C325.261 374.197 325.601 373.946 325.946 373.704C326.285 373.466 326.745 373.535 326.99 373.887C327.228 374.226 327.146 374.692 326.807 374.93C326.478 375.162 326.155 375.4 325.835 375.644C324.694 376.518 323.608 377.49 322.601 378.527C322.314 378.823 321.838 378.83 321.541 378.543C321.515 378.517 321.492 378.488 321.469 378.458ZM334.016 370.685C333.964 370.617 333.925 370.542 333.896 370.457C333.768 370.062 333.987 369.642 334.381 369.514C336.227 368.928 338.134 368.51 340.058 368.275C340.469 368.226 340.841 368.517 340.893 368.928C340.942 369.338 340.652 369.713 340.241 369.762C338.411 369.987 336.592 370.385 334.838 370.943C334.531 371.04 334.205 370.93 334.016 370.685ZM348.751 369.739C348.627 369.576 348.568 369.364 348.607 369.149C348.682 368.742 349.074 368.471 349.481 368.546C351.389 368.892 353.27 369.423 355.076 370.118C355.464 370.264 355.657 370.701 355.507 371.086C355.357 371.471 354.923 371.666 354.538 371.516C352.82 370.855 351.03 370.352 349.214 370.023C349.018 369.984 348.858 369.88 348.751 369.739ZM362.185 375.84C361.979 375.573 361.976 375.191 362.194 374.917C362.452 374.594 362.925 374.539 363.248 374.797C363.671 375.132 364.085 375.481 364.496 375.843C365.543 376.769 366.534 377.767 367.444 378.817C367.721 379.133 367.682 379.603 367.369 379.873C367.056 380.144 366.583 380.111 366.312 379.798C365.445 378.801 364.503 377.845 363.505 376.965C363.114 376.619 362.719 376.287 362.315 375.967C362.263 375.931 362.22 375.889 362.185 375.84Z" fill="#91B3FA"/>
<path d="M372.24 390.389C372.188 390.324 372.149 390.245 372.12 390.161C371.823 389.231 371.477 388.312 371.096 387.422C370.933 387.04 371.106 386.6 371.487 386.437C371.869 386.271 372.309 386.45 372.472 386.828C372.873 387.761 373.235 388.729 373.548 389.704C373.675 390.099 373.457 390.519 373.062 390.646C372.752 390.744 372.426 390.633 372.24 390.389Z" fill="#91B3FA"/>
</g>
<g opacity="0.6">
<path d="M369.166 415.61C368.983 415.368 368.954 415.033 369.123 414.759C369.635 413.931 370.111 413.07 370.535 412.199C370.718 411.827 371.165 411.674 371.536 411.853C371.908 412.033 372.061 412.483 371.882 412.858C371.435 413.774 370.936 414.677 370.398 415.548C370.18 415.9 369.72 416.007 369.368 415.792C369.286 415.74 369.221 415.678 369.166 415.61Z" fill="#91B3FA"/>
<path d="M319.269 418.329C319.018 418.003 319.076 417.537 319.403 417.282C319.729 417.028 320.201 417.087 320.456 417.413C321.564 418.838 322.82 420.171 324.179 421.378C324.492 421.648 324.518 422.124 324.241 422.434C323.967 422.744 323.495 422.773 323.185 422.496C321.753 421.228 320.439 419.826 319.272 418.332C319.269 418.332 319.269 418.329 319.269 418.329ZM330.658 427.332C330.495 427.12 330.449 426.826 330.57 426.562C330.743 426.187 331.186 426.021 331.561 426.19C333.208 426.944 334.936 427.544 336.697 427.98C337.098 428.082 337.342 428.486 337.245 428.89C337.144 429.291 336.739 429.536 336.338 429.438C334.489 428.978 332.673 428.346 330.942 427.557C330.824 427.504 330.73 427.426 330.658 427.332ZM344.923 430.018C344.835 429.904 344.78 429.761 344.77 429.604C344.747 429.19 345.064 428.838 345.478 428.815C347.287 428.717 349.1 428.45 350.861 428.026C351.265 427.928 351.669 428.176 351.764 428.577C351.862 428.978 351.614 429.386 351.213 429.48C349.364 429.927 347.463 430.207 345.559 430.309C345.302 430.325 345.067 430.207 344.923 430.018ZM358.817 425.802C358.797 425.78 358.781 425.754 358.768 425.727C358.556 425.372 358.673 424.912 359.029 424.7C360.02 424.11 360.985 423.458 361.901 422.754C362.423 422.356 362.935 421.932 363.427 421.498C363.737 421.225 364.213 421.257 364.484 421.567C364.758 421.883 364.725 422.353 364.415 422.627C363.897 423.083 363.359 423.526 362.811 423.944C361.849 424.681 360.832 425.372 359.792 425.992C359.462 426.184 359.045 426.099 358.817 425.802Z" fill="#91B3FA"/>
<path d="M314.831 410.422C314.789 410.367 314.75 410.301 314.724 410.23C314.362 409.271 314.045 408.29 313.781 407.308C313.674 406.907 313.912 406.496 314.313 406.389C314.71 406.281 315.125 406.519 315.229 406.92C315.48 407.853 315.78 408.792 316.126 409.701C316.272 410.089 316.077 410.52 315.689 410.667C315.372 410.784 315.027 410.676 314.831 410.422Z" fill="#91B3FA"/>
</g>
<path d="M320.726 402.385C320.729 402.541 320.834 402.675 320.984 402.724L325.226 404.044C325.761 406.05 326.615 407.983 327.795 409.763L325.972 413.81C325.907 413.953 325.943 414.119 326.054 414.224L329.934 417.876C330.048 417.983 330.215 418.006 330.355 417.934L334.284 415.87C336.129 416.94 338.112 417.68 340.146 418.091L341.721 422.245C341.777 422.392 341.917 422.486 342.073 422.48L347.398 422.32C347.554 422.317 347.688 422.212 347.737 422.062L349.058 417.82C351.063 417.286 352.996 416.431 354.777 415.251L358.823 417.074C358.967 417.139 359.133 417.103 359.237 416.992L362.889 413.112C362.997 412.998 363.019 412.832 362.948 412.691L360.884 408.762C361.953 406.917 362.693 404.934 363.108 402.9L367.262 401.325C367.408 401.269 367.503 401.129 367.496 400.973L367.337 395.648C367.333 395.492 367.229 395.358 367.079 395.312L362.837 393.992C362.302 391.986 361.448 390.053 360.268 388.273L362.09 384.226C362.155 384.083 362.12 383.916 362.009 383.812L358.129 380.16C358.014 380.053 357.848 380.03 357.708 380.102L353.779 382.166C351.933 381.096 349.951 380.356 347.916 379.942L346.341 375.788C346.286 375.641 346.146 375.547 345.989 375.553L340.665 375.713C340.508 375.716 340.375 375.82 340.326 375.97L339.005 380.212C337 380.747 335.066 381.601 333.286 382.782L329.24 380.959C329.099 380.894 328.93 380.93 328.826 381.041L325.174 384.921C325.066 385.035 325.043 385.201 325.115 385.341L327.179 389.27C326.109 391.116 325.369 393.098 324.958 395.133L320.804 396.708C320.658 396.763 320.563 396.903 320.57 397.06L320.726 402.385Z" fill="#91B3FA"/>
<path d="M339.39 402.59C338.01 400.793 337.743 398.273 338.914 396.17C340.485 393.349 344.059 392.332 346.879 393.904C349.7 395.475 350.717 399.049 349.145 401.869C347.574 404.69 344 405.707 341.18 404.136C340.462 403.738 339.862 403.206 339.39 402.59ZM341.731 403.154L341.734 403.161L341.731 403.154ZM346.889 396.822C346.599 396.444 346.227 396.118 345.784 395.87C344.046 394.901 341.845 395.528 340.88 397.265C339.911 399.003 340.537 401.204 342.275 402.173C344.013 403.141 346.214 402.515 347.179 400.777C347.903 399.479 347.737 397.927 346.889 396.822Z" fill="#BDD0FB"/>
<path d="M333.038 407.507C332.99 407.442 332.941 407.376 332.892 407.311C332.8 407.187 332.712 407.064 332.624 406.94C332.621 406.936 332.621 406.933 332.618 406.93L334.47 405.655C334.939 406.336 335.487 406.975 336.097 407.549C336.1 407.553 336.1 407.553 336.103 407.556C338.386 409.701 341.363 410.829 344.493 410.735C346.981 410.66 349.325 409.819 351.262 408.335C351.764 407.95 352.24 407.52 352.684 407.05C357.118 402.342 356.896 394.905 352.185 390.467C347.943 386.473 341.483 386.258 337.003 389.698C336.511 390.076 336.041 390.5 335.601 390.966C334.144 392.515 333.133 394.425 332.683 396.489L330.485 396.01C331.023 393.548 332.227 391.269 333.964 389.424C334.489 388.866 335.047 388.364 335.634 387.914C340.975 383.815 348.67 384.07 353.727 388.83C359.335 394.119 359.606 402.981 354.32 408.593C353.795 409.15 353.228 409.662 352.631 410.119C350.323 411.889 347.525 412.893 344.561 412.981C340.828 413.092 337.277 411.746 334.558 409.186C334.007 408.668 333.498 408.104 333.038 407.507Z" fill="#BDD0FB"/>
<g opacity="0.5">
<path d="M376.339 400.467C376.186 400.265 376.137 399.995 376.235 399.74C376.6 398.795 376.998 397.852 377.415 396.936C377.588 396.558 378.032 396.395 378.41 396.564C378.788 396.737 378.951 397.181 378.781 397.559C378.377 398.446 377.989 399.362 377.637 400.282C377.487 400.666 377.053 400.859 376.669 400.709C376.532 400.66 376.421 400.575 376.339 400.467Z" fill="#91B3FA"/>
<path d="M382.352 389.316C382.156 389.062 382.14 388.7 382.336 388.426C383.379 386.962 384.517 385.534 385.714 384.181L386.131 383.711C386.408 383.405 386.881 383.379 387.191 383.656C387.504 383.936 387.523 384.406 387.246 384.716L386.839 385.172C385.678 386.486 384.572 387.875 383.558 389.297C383.317 389.632 382.851 389.711 382.512 389.473C382.45 389.427 382.394 389.375 382.352 389.316ZM393.239 378.132C393.239 378.129 393.236 378.129 393.236 378.126C392.988 377.797 393.053 377.324 393.383 377.076C394.993 375.863 396.692 374.735 398.43 373.724C398.789 373.515 399.245 373.642 399.454 373.995C399.662 374.353 399.542 374.813 399.183 375.018C397.497 376 395.848 377.095 394.286 378.273C393.956 378.52 393.49 378.458 393.239 378.132ZM407.009 370.776C406.963 370.714 406.924 370.646 406.895 370.568C406.758 370.176 406.963 369.749 407.354 369.612C409.252 368.95 411.212 368.393 413.178 367.956C413.582 367.865 413.983 368.122 414.071 368.527C414.162 368.931 413.908 369.332 413.504 369.42C411.593 369.844 409.692 370.385 407.85 371.031C407.537 371.135 407.201 371.024 407.009 370.776ZM422.36 367.943C422.268 367.822 422.21 367.672 422.206 367.509C422.193 367.095 422.519 366.75 422.933 366.74C424.945 366.681 426.98 366.74 428.982 366.916C429.393 366.952 429.699 367.314 429.663 367.728C429.627 368.139 429.262 368.445 428.851 368.409C426.905 368.24 424.929 368.181 422.976 368.24C422.725 368.243 422.5 368.129 422.36 367.943ZM437.844 369.876C437.704 369.694 437.649 369.453 437.717 369.215C437.831 368.817 438.245 368.585 438.643 368.699C440.577 369.25 442.497 369.922 444.352 370.698C444.734 370.858 444.913 371.298 444.753 371.68C444.594 372.061 444.153 372.24 443.772 372.081C441.972 371.327 440.107 370.675 438.229 370.141C438.072 370.092 437.939 369.997 437.844 369.876ZM452.005 376.417C451.816 376.169 451.793 375.821 451.976 375.547C452.204 375.201 452.67 375.11 453.016 375.338C454.685 376.45 456.312 377.676 457.851 378.98C458.171 379.247 458.207 379.72 457.939 380.037C457.672 380.353 457.199 380.392 456.883 380.125C455.389 378.856 453.811 377.666 452.188 376.587C452.116 376.538 452.054 376.479 452.005 376.417ZM466.997 391.798C466.984 391.778 466.968 391.758 466.958 391.739C465.918 390.082 464.777 388.478 463.548 386.952C463.303 386.603 463.339 386.157 463.662 385.899C463.984 385.638 464.454 385.69 464.715 386.013C465.983 387.588 467.157 389.238 468.23 390.943C468.451 391.295 468.344 391.755 467.995 391.977C467.659 392.186 467.229 392.101 466.997 391.798Z" fill="#91B3FA"/>
<path d="M472.341 403.321C472.289 403.252 472.25 403.177 472.221 403.092C471.921 402.157 471.591 401.221 471.243 400.308C471.093 399.923 471.285 399.486 471.673 399.339C472.058 399.189 472.495 399.385 472.641 399.77C473.003 400.709 473.342 401.674 473.652 402.639C473.779 403.034 473.561 403.454 473.166 403.581C472.853 403.679 472.527 403.565 472.341 403.321Z" fill="#91B3FA"/>
</g>
<g opacity="0.5">
<path d="M468.223 443.808C468.047 443.576 468.011 443.253 468.164 442.983C468.647 442.128 469.11 441.248 469.537 440.368C469.72 439.996 470.166 439.843 470.538 440.022C470.913 440.201 471.063 440.651 470.884 441.023C470.44 441.929 469.964 442.836 469.469 443.716C469.266 444.078 468.807 444.205 468.448 444C468.357 443.954 468.282 443.886 468.223 443.808Z" fill="#91B3FA"/>
<path d="M382.557 448.656C382.554 448.649 382.547 448.646 382.544 448.64C381.38 447.032 380.304 445.343 379.339 443.618C379.137 443.256 379.267 442.8 379.626 442.598C379.988 442.396 380.448 442.52 380.646 442.888C381.582 444.561 382.629 446.201 383.757 447.763C383.998 448.098 383.923 448.568 383.588 448.809C383.261 449.044 382.802 448.976 382.557 448.656ZM388.84 455.816C388.622 455.529 388.635 455.119 388.889 454.848C389.173 454.545 389.649 454.532 389.949 454.815C390.366 455.21 390.79 455.598 391.224 455.979C392.238 456.873 393.298 457.737 394.374 458.542C394.706 458.79 394.771 459.259 394.524 459.592C394.276 459.925 393.806 459.99 393.474 459.742C392.368 458.911 391.276 458.024 390.233 457.104C389.786 456.71 389.352 456.312 388.922 455.908C388.893 455.878 388.866 455.849 388.84 455.816ZM401.449 464.581C401.28 464.362 401.24 464.059 401.371 463.795C401.553 463.423 402.003 463.27 402.372 463.453C404.1 464.297 405.893 465.05 407.703 465.693C408.094 465.83 408.296 466.26 408.159 466.648C408.023 467.036 407.592 467.241 407.204 467.104C405.339 466.446 403.494 465.67 401.713 464.799C401.609 464.744 401.518 464.669 401.449 464.581ZM416.099 469.165C415.978 469.009 415.92 468.807 415.952 468.595C416.014 468.187 416.396 467.903 416.807 467.965C418.704 468.255 420.641 468.438 422.562 468.51C422.976 468.526 423.298 468.872 423.282 469.286C423.266 469.7 422.92 470.023 422.506 470.006C420.527 469.935 418.535 469.746 416.582 469.446C416.383 469.42 416.213 469.315 416.099 469.165ZM431.453 469.181C431.378 469.084 431.326 468.966 431.307 468.836C431.245 468.428 431.525 468.044 431.936 467.982C433.84 467.695 435.744 467.294 437.596 466.791C437.994 466.684 438.408 466.919 438.516 467.32C438.623 467.721 438.389 468.132 437.987 468.239C436.08 468.758 434.117 469.168 432.158 469.465C431.88 469.508 431.613 469.39 431.453 469.181ZM446.119 464.633C446.09 464.594 446.064 464.551 446.041 464.503C445.859 464.131 446.015 463.681 446.387 463.502C448.115 462.66 449.814 461.711 451.434 460.675C451.783 460.453 452.249 460.544 452.468 460.903C452.69 461.252 452.588 461.715 452.24 461.936C450.57 463.003 448.822 463.984 447.042 464.848C446.716 465.008 446.331 464.91 446.119 464.633ZM458.754 455.901C458.523 455.601 458.552 455.167 458.836 454.9C459.941 453.857 461.017 452.745 462.034 451.591C462.295 451.294 462.553 450.997 462.807 450.694C463.075 450.378 463.547 450.335 463.864 450.603C464.18 450.873 464.222 451.343 463.955 451.659C463.694 451.969 463.43 452.275 463.159 452.582C462.113 453.769 461.004 454.913 459.866 455.989C459.566 456.273 459.09 456.26 458.806 455.96C458.784 455.94 458.767 455.921 458.754 455.901Z" fill="#91B3FA"/>
<path d="M375.537 434.958C375.488 434.893 375.449 434.821 375.42 434.74C375.103 433.791 374.81 432.81 374.546 431.828C374.438 431.427 374.676 431.016 375.074 430.912C375.475 430.804 375.886 431.042 375.994 431.44C376.251 432.395 376.535 433.344 376.841 434.267C376.972 434.658 376.76 435.085 376.369 435.216C376.056 435.317 375.726 435.203 375.537 434.958Z" fill="#91B3FA"/>
</g>
<path d="M385.687 423.719C385.694 423.98 385.867 424.208 386.118 424.283L393.219 426.497C394.113 429.852 395.547 433.093 397.523 436.07L394.471 442.846C394.364 443.084 394.419 443.364 394.608 443.54L401.103 449.657C401.293 449.836 401.576 449.875 401.808 449.751L408.388 446.298C411.479 448.092 414.798 449.328 418.202 450.019L420.837 456.974C420.928 457.218 421.166 457.375 421.427 457.368L430.345 457.101C430.605 457.094 430.834 456.922 430.909 456.67L433.123 449.569C436.478 448.675 439.719 447.241 442.696 445.265L449.471 448.317C449.709 448.424 449.99 448.369 450.166 448.18L456.283 441.685C456.462 441.496 456.501 441.212 456.377 440.98L452.924 434.401C454.718 431.309 455.953 427.99 456.645 424.586L463.599 421.952C463.844 421.86 464.001 421.622 463.994 421.361L463.727 412.444C463.72 412.183 463.547 411.954 463.296 411.88L456.195 409.666C455.301 406.31 453.867 403.069 451.891 400.092L454.943 393.317C455.05 393.079 454.995 392.798 454.806 392.622L448.311 386.505C448.121 386.326 447.838 386.287 447.606 386.411L441.026 389.864C437.935 388.071 434.616 386.835 431.212 386.144L428.577 379.189C428.486 378.944 428.248 378.788 427.987 378.794L419.069 379.062C418.809 379.068 418.584 379.241 418.505 379.492L416.291 386.594C412.936 387.487 409.695 388.922 406.718 390.898L399.943 387.846C399.705 387.738 399.424 387.793 399.248 387.983L393.131 394.478C392.952 394.667 392.913 394.95 393.033 395.182L396.486 401.762C394.693 404.853 393.457 408.172 392.766 411.576L385.811 414.211C385.567 414.302 385.41 414.54 385.417 414.801L385.687 423.719Z" fill="#91B3FA"/>
<path d="M417.537 423.601C415.405 420.823 414.994 416.93 416.803 413.683C417.98 411.573 419.907 410.044 422.229 409.382C424.554 408.72 426.996 409.004 429.106 410.177C431.215 411.351 432.744 413.282 433.406 415.603C434.068 417.928 433.785 420.37 432.607 422.48C430.182 426.836 424.661 428.408 420.302 425.982C419.193 425.369 418.264 424.55 417.537 423.601ZM420.853 425.003L420.856 425.01L420.853 425.003ZM430.1 413.943C429.542 413.216 428.838 412.607 428.013 412.147C426.429 411.263 424.593 411.051 422.845 411.547C421.097 412.043 419.65 413.19 418.766 414.778C416.943 418.052 418.124 422.199 421.397 424.022C424.671 425.845 428.819 424.664 430.641 421.391C431.525 419.803 431.737 417.97 431.241 416.223C431.003 415.385 430.615 414.615 430.1 413.943Z" fill="#BDD0FB"/>
<path d="M406.904 431.828C406.823 431.72 406.741 431.613 406.66 431.505C406.656 431.502 406.653 431.499 406.65 431.492C406.65 431.492 406.65 431.492 406.65 431.489C406.506 431.293 406.363 431.094 406.226 430.895L408.078 429.62C408.9 430.811 409.852 431.919 410.908 432.917C410.931 432.936 410.95 432.956 410.973 432.976C414.778 436.53 419.689 438.463 424.87 438.466C425.082 438.466 425.294 438.463 425.506 438.457C429.833 438.326 433.915 436.866 437.283 434.28C438.154 433.611 438.979 432.868 439.748 432.053C447.459 423.862 447.068 410.931 438.881 403.213C434.913 399.476 429.728 397.51 424.28 397.673C419.953 397.803 415.871 399.264 412.503 401.85C411.632 402.518 410.807 403.262 410.041 404.077C407.504 406.77 405.75 410.093 404.964 413.686L402.766 413.207C403.64 409.216 405.59 405.525 408.404 402.538C409.252 401.638 410.158 400.82 411.11 400.089C419.764 393.447 432.232 393.861 440.423 401.576C449.514 410.138 449.947 424.501 441.385 433.595C440.534 434.502 439.618 435.327 438.649 436.07C434.909 438.939 430.377 440.563 425.574 440.707C419.526 440.889 413.771 438.705 409.366 434.557C408.472 433.713 407.647 432.8 406.904 431.828Z" fill="#BDD0FB"/>
</g>
<defs>
<linearGradient id="paint0_linear_81_186" x1="4.73647" y1="593.576" x2="754.044" y2="49.4361" gradientUnits="userSpaceOnUse">
<stop stop-color="#DAE3FE"/>
<stop offset="1" stop-color="#E9EFFD"/>
</linearGradient>
<linearGradient id="paint1_linear_81_186" x1="139.468" y1="450.091" x2="215.707" y2="450.091" gradientUnits="userSpaceOnUse">
<stop stop-color="#DAE3FE"/>
<stop offset="1" stop-color="#E9EFFD"/>
</linearGradient>
<linearGradient id="paint2_linear_81_186" x1="215.686" y1="145.094" x2="287.828" y2="145.094" gradientUnits="userSpaceOnUse">
<stop stop-color="#DAE3FE"/>
<stop offset="1" stop-color="#E9EFFD"/>
</linearGradient>
<linearGradient id="paint3_linear_81_186" x1="567.195" y1="257.724" x2="629.246" y2="257.724" gradientUnits="userSpaceOnUse">
<stop stop-color="#DAE3FE"/>
<stop offset="1" stop-color="#E9EFFD"/>
</linearGradient>
<linearGradient id="paint4_linear_81_186" x1="595.634" y1="450.091" x2="671.872" y2="450.091" gradientUnits="userSpaceOnUse">
<stop stop-color="#DAE3FE"/>
<stop offset="1" stop-color="#E9EFFD"/>
</linearGradient>
<linearGradient id="paint5_linear_81_186" x1="444.852" y1="193.301" x2="366.589" y2="92.5385" gradientUnits="userSpaceOnUse">
<stop stop-color="#FE7062"/>
<stop offset="1" stop-color="#FF928E"/>
</linearGradient>
<linearGradient id="paint6_linear_81_186" x1="469.5" y1="129.75" x2="476.348" y2="-31.6665" gradientUnits="userSpaceOnUse">
<stop stop-color="#FE7062"/>
<stop offset="1" stop-color="#FF928E"/>
</linearGradient>
<linearGradient id="paint7_linear_81_186" x1="381.599" y1="107.281" x2="328.772" y2="236.414" gradientUnits="userSpaceOnUse">
<stop stop-color="#FE7062"/>
<stop offset="1" stop-color="#FF928E"/>
</linearGradient>
<linearGradient id="paint8_linear_81_186" x1="433.92" y1="285.179" x2="565.009" y2="264.635" gradientUnits="userSpaceOnUse">
<stop stop-color="#FE7062"/>
<stop offset="1" stop-color="#FF928E"/>
</linearGradient>
<linearGradient id="paint9_linear_81_186" x1="413.244" y1="347.427" x2="482.701" y2="265.252" gradientUnits="userSpaceOnUse">
<stop stop-color="#FE7062"/>
<stop offset="1" stop-color="#FF928E"/>
</linearGradient>
<linearGradient id="paint10_linear_81_186" x1="519.448" y1="226.248" x2="535.1" y2="40.3754" gradientUnits="userSpaceOnUse">
<stop stop-color="#FE7062"/>
<stop offset="1" stop-color="#FF928E"/>
</linearGradient>
<linearGradient id="paint11_linear_81_186" x1="352.365" y1="219.593" x2="274.102" y2="401.553" gradientUnits="userSpaceOnUse">
<stop stop-color="#FE7062"/>
<stop offset="1" stop-color="#FF928E"/>
</linearGradient>
<linearGradient id="paint12_linear_81_186" x1="314.021" y1="203.101" x2="235.759" y2="385.061" gradientUnits="userSpaceOnUse">
<stop stop-color="#FE7062"/>
<stop offset="1" stop-color="#FF928E"/>
</linearGradient>
<linearGradient id="paint13_linear_81_186" x1="363.29" y1="312.275" x2="524.706" y2="302.492" gradientUnits="userSpaceOnUse">
<stop stop-color="#FE7062"/>
<stop offset="1" stop-color="#FF928E"/>
</linearGradient>
<linearGradient id="paint14_linear_81_186" x1="557.612" y1="75.4654" x2="550.439" y2="103.615" gradientUnits="userSpaceOnUse">
<stop stop-color="#4042E2"/>
<stop offset="1" stop-color="#4F52FF"/>
</linearGradient>
<linearGradient id="paint15_linear_81_186" x1="-1331.62" y1="201.084" x2="-1364.6" y2="199.21" gradientUnits="userSpaceOnUse">
<stop stop-color="#4042E2"/>
<stop offset="1" stop-color="#4F52FF"/>
</linearGradient>
<linearGradient id="paint16_linear_81_186" x1="506.388" y1="299.791" x2="500.606" y2="299.791" gradientUnits="userSpaceOnUse">
<stop stop-color="#FF928E"/>
<stop offset="1" stop-color="#FEB3B1"/>
</linearGradient>
<linearGradient id="paint17_linear_81_186" x1="601.823" y1="86.7308" x2="594.649" y2="114.881" gradientUnits="userSpaceOnUse">
<stop stop-color="#4042E2"/>
<stop offset="1" stop-color="#4F52FF"/>
</linearGradient>
<linearGradient id="paint18_linear_81_186" x1="-1349.82" y1="26.4841" x2="-1366.5" y2="24.048" gradientUnits="userSpaceOnUse">
<stop stop-color="#4042E2"/>
<stop offset="1" stop-color="#4F52FF"/>
</linearGradient>
<linearGradient id="paint19_linear_81_186" x1="543.144" y1="294.972" x2="536.234" y2="294.972" gradientUnits="userSpaceOnUse">
<stop stop-color="#FF928E"/>
<stop offset="1" stop-color="#FEB3B1"/>
</linearGradient>
<linearGradient id="paint20_linear_81_186" x1="559.149" y1="315.177" x2="468.381" y2="212.484" gradientUnits="userSpaceOnUse">
<stop stop-color="#09005D"/>
<stop offset="1" stop-color="#1A0F91"/>
</linearGradient>
<linearGradient id="paint21_linear_81_186" x1="473.323" y1="162.366" x2="526.797" y2="215.622" gradientUnits="userSpaceOnUse">
<stop stop-color="#4042E2"/>
<stop offset="1" stop-color="#4F52FF"/>
</linearGradient>
<linearGradient id="paint22_linear_81_186" x1="510.36" y1="222.889" x2="551.442" y2="179.852" gradientUnits="userSpaceOnUse">
<stop stop-color="#09005D"/>
<stop offset="1" stop-color="#1A0F91"/>
</linearGradient>
<linearGradient id="paint23_linear_81_186" x1="599.33" y1="444.123" x2="586.94" y2="406.083" gradientUnits="userSpaceOnUse">
<stop stop-color="#FF928E"/>
<stop offset="1" stop-color="#FEB3B1"/>
</linearGradient>
<linearGradient id="paint24_linear_81_186" x1="487.311" y1="148.321" x2="540.785" y2="201.578" gradientUnits="userSpaceOnUse">
<stop stop-color="#4042E2"/>
<stop offset="1" stop-color="#4F52FF"/>
</linearGradient>
<linearGradient id="paint25_linear_81_186" x1="459.893" y1="175.851" x2="513.367" y2="229.108" gradientUnits="userSpaceOnUse">
<stop stop-color="#4042E2"/>
<stop offset="1" stop-color="#4F52FF"/>
</linearGradient>
<linearGradient id="paint26_linear_81_186" x1="457.947" y1="144.591" x2="454.034" y2="157.199" gradientUnits="userSpaceOnUse">
<stop stop-color="#FF928E"/>
<stop offset="1" stop-color="#FEB3B1"/>
</linearGradient>
<linearGradient id="paint27_linear_81_186" x1="478.265" y1="142.078" x2="488.482" y2="164.902" gradientUnits="userSpaceOnUse">
<stop stop-color="#FF928E"/>
<stop offset="1" stop-color="#FEB3B1"/>
</linearGradient>
<linearGradient id="paint28_linear_81_186" x1="517.412" y1="145.927" x2="500.891" y2="144.406" gradientUnits="userSpaceOnUse">
<stop stop-color="#FF928E"/>
<stop offset="1" stop-color="#FEB3B1"/>
</linearGradient>
<linearGradient id="paint29_linear_81_186" x1="485.127" y1="146.557" x2="465.524" y2="138.305" gradientUnits="userSpaceOnUse">
<stop stop-color="#09005D"/>
<stop offset="1" stop-color="#1A0F91"/>
</linearGradient>
<linearGradient id="paint30_linear_81_186" x1="491.596" y1="163.355" x2="484.118" y2="144.31" gradientUnits="userSpaceOnUse">
<stop stop-color="#FF928E"/>
<stop offset="1" stop-color="#FEB3B1"/>
</linearGradient>
<linearGradient id="paint31_linear_81_186" x1="587.219" y1="448.069" x2="574.829" y2="410.028" gradientUnits="userSpaceOnUse">
<stop stop-color="#FF928E"/>
<stop offset="1" stop-color="#FEB3B1"/>
</linearGradient>
<linearGradient id="paint32_linear_81_186" x1="266.777" y1="529.427" x2="251.511" y2="351.01" gradientUnits="userSpaceOnUse">
<stop stop-color="#FF928E"/>
<stop offset="1" stop-color="#FEB3B1"/>
</linearGradient>
<linearGradient id="paint33_linear_81_186" x1="283.686" y1="455.716" x2="266.894" y2="480.659" gradientUnits="userSpaceOnUse">
<stop stop-color="#09005D"/>
<stop offset="1" stop-color="#1A0F91"/>
</linearGradient>
<linearGradient id="paint34_linear_81_186" x1="255.18" y1="529.408" x2="239.914" y2="350.992" gradientUnits="userSpaceOnUse">
<stop stop-color="#FF928E"/>
<stop offset="1" stop-color="#FEB3B1"/>
</linearGradient>
<linearGradient id="paint35_linear_81_186" x1="242.533" y1="435.705" x2="260.901" y2="390.274" gradientUnits="userSpaceOnUse">
<stop stop-color="#09005D"/>
<stop offset="1" stop-color="#1A0F91"/>
</linearGradient>
<linearGradient id="paint36_linear_81_186" x1="262.934" y1="362.415" x2="287.932" y2="341.765" gradientUnits="userSpaceOnUse">
<stop stop-color="#FF928E"/>
<stop offset="1" stop-color="#FEB3B1"/>
</linearGradient>
<linearGradient id="paint37_linear_81_186" x1="246.689" y1="297.719" x2="248.905" y2="333.396" gradientUnits="userSpaceOnUse">
<stop stop-color="#09005D"/>
<stop offset="1" stop-color="#1A0F91"/>
</linearGradient>
<linearGradient id="paint38_linear_81_186" x1="257.866" y1="433.384" x2="255.094" y2="455.23" gradientUnits="userSpaceOnUse">
<stop stop-color="#09005D"/>
<stop offset="1" stop-color="#1A0F91"/>
</linearGradient>
<linearGradient id="paint39_linear_81_186" x1="253.731" y1="358.083" x2="246.769" y2="422.681" gradientUnits="userSpaceOnUse">
<stop stop-color="#4042E2"/>
<stop offset="1" stop-color="#4F52FF"/>
</linearGradient>
<linearGradient id="paint40_linear_81_186" x1="259.333" y1="320.717" x2="255.421" y2="347.345" gradientUnits="userSpaceOnUse">
<stop stop-color="#FF928E"/>
<stop offset="1" stop-color="#FEB3B1"/>
</linearGradient>
<linearGradient id="paint41_linear_81_186" x1="245.035" y1="370.177" x2="225.986" y2="370.177" gradientUnits="userSpaceOnUse">
<stop stop-color="#FF928E"/>
<stop offset="1" stop-color="#FEB3B1"/>
</linearGradient>
<linearGradient id="paint42_linear_81_186" x1="-574.526" y1="1444.49" x2="-562.195" y2="1427.96" gradientUnits="userSpaceOnUse">
<stop stop-color="#FF928E"/>
<stop offset="1" stop-color="#FEB3B1"/>
</linearGradient>
<linearGradient id="paint43_linear_81_186" x1="268.845" y1="303.313" x2="247.554" y2="329.541" gradientUnits="userSpaceOnUse">
<stop stop-color="#09005D"/>
<stop offset="1" stop-color="#1A0F91"/>
</linearGradient>
<linearGradient id="paint44_linear_81_186" x1="-579.003" y1="1441.15" x2="-566.671" y2="1424.62" gradientUnits="userSpaceOnUse">
<stop stop-color="#FF928E"/>
<stop offset="1" stop-color="#FEB3B1"/>
</linearGradient>
<linearGradient id="paint45_linear_81_186" x1="402.042" y1="225.016" x2="447.036" y2="159.97" gradientUnits="userSpaceOnUse">
<stop stop-color="#4042E2"/>
<stop offset="1" stop-color="#4F52FF"/>
</linearGradient>
<linearGradient id="paint46_linear_81_186" x1="448.351" y1="67.9583" x2="432.701" y2="87.521" gradientUnits="userSpaceOnUse">
<stop stop-color="#09005D"/>
<stop offset="1" stop-color="#1A0F91"/>
</linearGradient>
<linearGradient id="paint47_linear_81_186" x1="419.839" y1="91.7599" x2="413.97" y2="118.659" gradientUnits="userSpaceOnUse">
<stop stop-color="#09005D"/>
<stop offset="1" stop-color="#1A0F91"/>
</linearGradient>
<linearGradient id="paint48_linear_81_186" x1="350.947" y1="374.662" x2="403.766" y2="253.863" gradientUnits="userSpaceOnUse">
<stop stop-color="#09005D"/>
<stop offset="1" stop-color="#1A0F91"/>
</linearGradient>
<clipPath id="clip0_81_186">
<rect width="807" height="538" fill="white"/>
</clipPath>
</defs>
</svg>
